<?xml version="1.0" encoding="utf-8"?>
<!-- Generator: Adobe Illustrator 24.0.2, SVG Export Plug-In . SVG Version: 6.00 Build 0)  -->
<svg version="1.1" id="Capa_1" xmlns="http://www.w3.org/2000/svg" xmlns:xlink="http://www.w3.org/1999/xlink" x="0px" y="0px"
	 viewBox="0 0 215 180" style="enable-background:new 0 0 215 180;" xml:space="preserve">
<style type="text/css">
	.st0{fill:#ECF0F7;}
	.st1{fill:#FFFFFF;}
	.st2{fill:#7BE1C9;}
	.st3{fill:#95E7D4;}
	.st4{fill:#1C2A47;}
	.st5{fill:#3A6B5F;}
	.st6{fill-rule:evenodd;clip-rule:evenodd;fill:#B5C4E2;}
	.st7{clip-path:url(#SVGID_2_);fill:#1C2A47;}
	.st8{fill:#6C8AC5;}
	.st9{clip-path:url(#SVGID_4_);fill:#1C2A47;}
	.st10{fill:#91A7D3;}
	.st11{clip-path:url(#SVGID_6_);fill:#1C2A47;}
</style>
<path class="st0" d="M64.45,173.9h79.07c-0.53-7.64,7.16-12.51,14.15-15.63c8.8-3.93,17.77-7.86,25.12-14.09
	c7.35-6.23,12.97-15.23,12.77-24.87c-0.22-10.6-7.21-19.82-9.66-30.13c-2.9-12.22,0.73-24.89,2.66-37.3s1.55-26.63-7.33-35.51
	c-7.31-7.31-18.58-9.03-28.9-8.29s-20.45,3.51-30.8,3.57c-12,0.07-23.69-3.51-35.52-5.57s-24.68-2.4-35.1,3.56
	C39.32,16.28,32.79,30.72,35.46,43.8c1.86,9.11,7.65,17.28,8.12,26.56c0.39,7.73-2.99,15.14-6.98,21.78
	c-6.53,10.85-14.96,20.75-19.13,32.71s-2.74,27.24,7.59,34.56C36.08,167.21,56.1,163.29,64.45,173.9z"/>
<polygon class="st1" points="157.12,51.87 171.54,25.77 173.6,27.56 158.63,55.03 "/>
<path class="st2" d="M81.94,161.47c0.03-0.01,0.06-0.02,0.09-0.03c0.25-0.11,0.36-0.4,0.25-0.65
	c-29.06-65-53.73-110.36-69.45-127.71c-0.35-0.39-0.6-0.66-0.7-0.81c-0.16-0.22-0.47-0.28-0.69-0.12c-0.22,0.16-0.28,0.46-0.12,0.69
	c0.14,0.19,0.38,0.46,0.78,0.9c15.66,17.28,40.26,62.55,69.29,127.46C81.49,161.41,81.72,161.52,81.94,161.47z"/>
<path class="st2" d="M3.13,30.78c1.85,1.94,10.26,4.85,10.82,4.32c0.55-0.53-1.95-9.07-3.79-11.01c-1.85-1.94-4.92-2.01-6.85-0.16
	C1.36,25.78,1.29,28.85,3.13,30.78z"/>
<path class="st2" d="M19.24,35.32c-0.44,2.7,2.36,11.36,3.13,11.49c0.77,0.13,6.21-7.18,6.66-9.88c0.44-2.7-1.38-5.25-4.08-5.7
	C22.24,30.79,19.69,32.62,19.24,35.32z"/>
<path class="st2" d="M11.81,52.06c2.73-0.17,10.55-4.86,10.5-5.63c-0.05-0.78-8.39-4.43-11.13-4.26c-2.73,0.17-4.81,2.53-4.64,5.26
	C6.72,50.16,9.08,52.23,11.81,52.06z"/>
<path class="st2" d="M48.26,77.15c-1.23,4.43,1.88,19.39,3.14,19.74c1.27,0.35,11.67-10.85,12.9-15.28
	c1.23-4.43-1.36-9.01-5.79-10.25S49.49,72.72,48.26,77.15z"/>
<path class="st2" d="M32.83,103.74c4.59,0.2,18.48-6.19,18.54-7.5c0.06-1.31-13.2-8.92-17.8-9.12s-8.49,3.35-8.69,7.94
	S28.24,103.53,32.83,103.74z"/>
<path class="st2" d="M62.29,92.53c-2.66,4.95-2.98,23.65-1.57,24.41c1.41,0.76,16.85-9.81,19.52-14.76
	c2.66-4.95,0.81-11.13-4.15-13.79C71.14,85.72,64.96,87.58,62.29,92.53z"/>
<path class="st2" d="M39.86,127.62c5.62-0.33,21.72-9.87,21.62-11.47c-0.09-1.6-17.2-9.19-22.81-8.86
	c-5.62,0.33-9.91,5.15-9.58,10.76C29.42,123.66,34.24,127.95,39.86,127.62z"/>
<path class="st2" d="M72.48,113.64c-2.66,4.95-2.98,23.65-1.57,24.41s16.85-9.81,19.52-14.76c2.66-4.95,0.81-11.13-4.15-13.79
	C81.32,106.83,75.14,108.69,72.48,113.64z"/>
<path class="st2" d="M50.04,148.72c5.62-0.33,21.72-9.87,21.62-11.47c-0.09-1.6-17.2-9.19-22.81-8.86s-9.91,5.15-9.58,10.76
	C39.6,144.77,44.42,149.05,50.04,148.72z"/>
<path class="st2" d="M92.14,139.28c-4.35,3.57-11.77,20.73-10.76,21.97c1.02,1.24,19.32-2.66,23.67-6.22
	c4.35-3.57,4.99-9.98,1.42-14.33C102.91,136.35,96.49,135.71,92.14,139.28z"/>
<path class="st2" d="M59.34,169.7c5.62,0.38,22.78-7.07,22.88-8.68c0.11-1.6-15.91-11.27-21.52-11.64
	c-5.62-0.38-10.47,3.87-10.84,9.48C49.48,164.47,53.73,169.33,59.34,169.7z"/>
<path class="st2" d="M28.21,48.35c-0.45,2.75,2.4,11.54,3.18,11.67c0.79,0.13,6.31-7.29,6.77-10.04c0.45-2.75-1.41-5.34-4.15-5.79
	C31.26,43.75,28.66,45.61,28.21,48.35z"/>
<path class="st2" d="M21.04,65.48c2.78-0.18,10.72-4.93,10.67-5.72c-0.05-0.79-8.53-4.51-11.31-4.33c-2.78,0.18-4.89,2.57-4.71,5.35
	C15.87,63.55,18.26,65.66,21.04,65.48z"/>
<path class="st2" d="M38.06,60.26c-0.96,3.83,2.04,16.63,3.14,16.9c1.09,0.28,9.79-9.59,10.75-13.42c0.96-3.83-1.37-7.72-5.2-8.68
	C42.91,54.1,39.02,56.43,38.06,60.26z"/>
<path class="st2" d="M26.1,84.84c3.94-0.25,15.22-7.01,15.15-8.13c-0.07-1.13-12.11-6.4-16.06-6.15c-3.94,0.25-6.94,3.65-6.69,7.59
	C18.75,82.09,22.16,85.09,26.1,84.84z"/>
<path class="st2" d="M155.3,149.14c-0.01-0.01-0.03-0.02-0.04-0.03c-0.11-0.09-0.13-0.24-0.04-0.35
	c22.64-28.34,40.6-47.56,50.57-54.11c0.22-0.15,0.38-0.25,0.45-0.31c0.11-0.09,0.27-0.08,0.36,0.03c0.09,0.11,0.08,0.27-0.03,0.35
	c-0.09,0.08-0.24,0.18-0.5,0.35c-9.93,6.52-27.85,25.7-50.45,54C155.54,149.17,155.41,149.19,155.3,149.14z"/>
<path class="st2" d="M210.86,94.76c-1.16,0.72-5.68,1.08-5.89,0.75c-0.2-0.33,2.12-4.22,3.28-4.94c1.16-0.72,2.68-0.37,3.4,0.79
	C212.38,92.52,212.02,94.04,210.86,94.76z"/>
<path class="st2" d="M202.34,94.94c-0.13,1.39-2.61,5.3-3.01,5.26s-2.15-4.33-2.02-5.72s1.35-2.41,2.74-2.29
	S202.47,93.55,202.34,94.94z"/>
<path class="st2" d="M203.86,104.14c-1.33-0.43-4.58-3.74-4.46-4.12c0.13-0.38,4.71-1.11,6.03-0.68c1.33,0.43,2.05,1.86,1.61,3.19
	C206.62,103.85,205.19,104.58,203.86,104.14z"/>
<path class="st2" d="M182.69,111.86c0.04,2.34-3.4,9.32-4.07,9.33s-4.36-6.84-4.41-9.18c-0.04-2.34,1.82-4.27,4.16-4.32
	S182.65,109.52,182.69,111.86z"/>
<path class="st2" d="M186.9,126.94c-2.29-0.48-8.32-5.41-8.18-6.07c0.14-0.65,7.65-2.71,9.94-2.23c2.29,0.48,3.75,2.73,3.27,5.02
	C191.44,125.96,189.19,127.42,186.9,126.94z"/>
<path class="st2" d="M173.8,117.65c0.68,2.78-1.55,12.04-2.35,12.24s-7.05-6.99-7.74-9.77c-0.68-2.78,1.02-5.59,3.81-6.27
	C170.31,113.17,173.12,114.87,173.8,117.65z"/>
<path class="st2" d="M180.38,137.82c-2.73-0.88-9.45-7.63-9.2-8.42c0.25-0.78,9.65-2.34,12.38-1.46c2.73,0.88,4.22,3.8,3.35,6.53
	C186.03,137.2,183.11,138.7,180.38,137.82z"/>
<path class="st2" d="M166.08,126.76c0.68,2.78-1.55,12.04-2.35,12.24s-7.05-6.99-7.74-9.77s1.02-5.59,3.81-6.27
	C162.59,122.27,165.4,123.98,166.08,126.76z"/>
<path class="st2" d="M172.66,146.93c-2.73-0.88-9.45-7.63-9.2-8.42c0.25-0.78,9.65-2.34,12.38-1.46c2.73,0.88,4.22,3.8,3.35,6.53
	C178.31,146.31,175.39,147.81,172.66,146.93z"/>
<path class="st2" d="M153.11,136.89c1.69,2.31,3.16,11.72,2.5,12.21c-0.66,0.48-9.19-3.77-10.88-6.09
	c-1.69-2.31-1.18-5.56,1.13-7.25C148.18,134.08,151.42,134.58,153.11,136.89z"/>
<path class="st2" d="M165.39,156.08c-2.82-0.53-10.33-6.39-10.17-7.2c0.15-0.8,9.28-3.53,12.1-2.99c2.82,0.53,4.67,3.24,4.14,6.06
	C170.93,154.76,168.21,156.61,165.39,156.08z"/>
<path class="st2" d="M196.25,100.22c-0.13,1.41-2.66,5.39-3.06,5.35c-0.4-0.04-2.18-4.4-2.05-5.81c0.13-1.41,1.37-2.45,2.79-2.33
	C195.34,97.56,196.38,98.81,196.25,100.22z"/>
<path class="st2" d="M197.6,109.58c-1.35-0.44-4.66-3.8-4.53-4.18c0.13-0.38,4.78-1.13,6.13-0.69c1.35,0.44,2.08,1.89,1.64,3.24
	S198.95,110.02,197.6,109.58z"/>
<path class="st2" d="M189.87,104.83c-0.01,2.01-3.13,7.94-3.71,7.93c-0.57,0-3.6-5.97-3.59-7.99s1.66-3.63,3.68-3.62
	C188.27,101.18,189.89,102.82,189.87,104.83z"/>
<path class="st2" d="M192.63,118.48c-1.92-0.63-6.61-5.4-6.43-5.95c0.18-0.54,6.79-1.61,8.71-0.98s2.96,2.69,2.33,4.6
	C196.61,118.07,194.54,119.11,192.63,118.48z"/>
<path class="st3" d="M127.35,162.05c0,0-22.04-37.6,48.23-64.32C175.59,97.73,174.22,175.11,127.35,162.05z"/>
<path class="st2" d="M175.68,97.61l-50.24,59.29C122.21,145.77,121,118.4,175.68,97.61z"/>
<path class="st4" d="M127.56,154.62c-0.05,0-0.1-0.02-0.15-0.05c-0.1-0.08-0.11-0.22-0.03-0.32l48.12-56.79
	c0.08-0.1,0.23-0.11,0.32-0.03c0.1,0.08,0.11,0.22,0.03,0.32l-48.12,56.79C127.69,154.6,127.62,154.62,127.56,154.62z"/>
<path class="st4" d="M150.56,127.48c-0.11,0-0.21-0.08-0.22-0.2c-0.02-0.13,0.07-0.24,0.19-0.25l20.5-2.75
	c0.12-0.02,0.24,0.07,0.25,0.19c0.02,0.13-0.07,0.24-0.19,0.25l-20.5,2.75C150.58,127.48,150.57,127.48,150.56,127.48z"/>
<path class="st4" d="M140.25,139.65c-0.01,0-0.03,0-0.05,0c-0.12-0.03-0.2-0.14-0.18-0.27l4.05-19.88c0.03-0.12,0.15-0.2,0.27-0.18
	s0.2,0.14,0.18,0.27l-4.05,19.88C140.45,139.57,140.36,139.65,140.25,139.65z"/>
<path class="st2" d="M121.81,164.48c0,0,4.54-31.05,56.08-14.46C177.88,150.01,142.27,192.89,121.81,164.48z"/>
<path class="st5" d="M177.88,150.01l-56.08,14.46C121.81,164.48,137.13,194.54,177.88,150.01z"/>
<path class="st2" d="M163.26,159.5c-0.01,0-0.01,0-0.03,0l-13.09-2.67c-0.1-0.02-0.16-0.12-0.14-0.22c0.02-0.1,0.12-0.16,0.22-0.14
	l13.09,2.67c0.1,0.02,0.16,0.12,0.14,0.22C163.44,159.44,163.35,159.51,163.26,159.5z"/>
<path class="st2" d="M144.68,168.36c-0.01,0-0.03,0-0.04-0.01l-16.89-5.25c-0.1-0.03-0.15-0.13-0.12-0.23
	c0.03-0.1,0.13-0.15,0.23-0.12l16.89,5.25c0.1,0.03,0.15,0.13,0.12,0.23C144.84,168.31,144.76,168.36,144.68,168.36z"/>
<path class="st2" d="M73,162.78c0,0,20.73-35.36-45.36-60.49C27.64,102.29,28.92,175.07,73,162.78z"/>
<path class="st3" d="M27.55,102.18l47.25,55.76C77.84,147.48,78.97,121.73,27.55,102.18z"/>
<path class="st4" d="M72.81,155.81c-0.06,0-0.13-0.03-0.17-0.08l-45.26-53.41c-0.08-0.1-0.07-0.24,0.03-0.32
	c0.1-0.08,0.24-0.07,0.32,0.03l45.26,53.41c0.08,0.1,0.07,0.24-0.03,0.32C72.91,155.8,72.86,155.81,72.81,155.81z"/>
<path class="st4" d="M51.18,130.29c-0.01,0-0.02,0-0.03,0l-19.28-2.58c-0.13-0.02-0.21-0.13-0.19-0.25s0.13-0.22,0.25-0.19
	l19.28,2.58c0.13,0.02,0.21,0.13,0.19,0.25C51.39,130.21,51.29,130.29,51.18,130.29z"/>
<path class="st4" d="M60.87,141.73c-0.1,0-0.2-0.08-0.22-0.18l-3.81-18.7c-0.03-0.12,0.05-0.24,0.18-0.27
	c0.12-0.03,0.24,0.05,0.27,0.18l3.81,18.7c0.03,0.12-0.05,0.24-0.18,0.27C60.9,141.73,60.89,141.73,60.87,141.73z"/>
<path class="st5" d="M78.22,165.06c0,0-4.27-29.2-52.74-13.6C25.48,151.47,58.97,191.79,78.22,165.06z"/>
<path class="st3" d="M25.48,151.47l52.74,13.6C78.22,165.06,63.81,193.34,25.48,151.47z"/>
<path class="st5" d="M39.23,160.39c0.01,0,0.01,0,0.02,0l12.32-2.51c0.09-0.02,0.15-0.11,0.14-0.2c-0.02-0.09-0.11-0.15-0.2-0.14
	l-12.32,2.51c-0.09,0.02-0.15,0.11-0.14,0.2C39.06,160.33,39.14,160.39,39.23,160.39z"/>
<path class="st5" d="M56.71,168.72c0.01,0,0.03,0,0.04-0.01l15.88-4.94c0.09-0.03,0.14-0.13,0.11-0.22
	c-0.03-0.09-0.13-0.14-0.22-0.11l-15.88,4.94c-0.09,0.03-0.14,0.13-0.11,0.22C56.55,168.68,56.63,168.72,56.71,168.72z"/>
<path class="st4" d="M93.2,30.64c-0.45,0.38-0.88,0.78-1.28,1.21c-3.31,3.52-3.09,9.63-7.68,12c-3.28,1.7-7.22,0.27-10.9,0
	c-2.72-0.2-5.54,0.3-7.83,1.78c-2.29,1.48-3.97,4.01-4.05,6.73c-0.08,2.67,1.31,5.18,1.53,7.85c0.2,2.43-0.61,4.92-2.22,6.76
	c-1.71,1.96-4.17,3.09-6.2,4.73s-3.71,4.26-2.92,6.74c0.85,2.66,4.08,3.88,5.24,6.43c1.24,2.74-0.33,5.83-1.46,8.61
	s-1.52,6.63,1.05,8.19c1.14,0.7,2.56,0.7,3.89,0.58c0.88-0.08,1.81-0.2,2.6,0.19c0.48,0.24,0.85,0.63,1.18,1.05
	c2,2.46,3.31,5.85,6.29,6.91c1.54,0.55,3.24,0.34,4.86,0.11c3.39-0.48,6.95-1.09,9.59-3.28c4.56-3.8,4.74-10.93,8.69-15.36
	c3.15-3.53,8.14-4.73,12.85-5.19c4.71-0.46,9.57-0.38,13.98-2.09c2.64-1.02,5.04-2.67,6.93-4.77c1.24-1.38,2.31-3.05,2.42-4.91
	c0.25-4.01-3.82-7.02-4.63-10.95c-0.65-3.19,0.55-6.28,0.6-9.45c0.04-3.11-1.4-6.17-2.63-8.97c-2.49-5.67-6.52-13.99-12.13-17.12
	C105.43,25.29,97.93,26.61,93.2,30.64z"/>
<path class="st6" d="M67.39,108.59c-0.81-2.28,6.26-10.53,6.26-10.53l-9.98-9.88c0,0-9.66,10.47-10.15,17.32
	c-0.46,6.47,18.28,26.17,21.54,29.59l0,0l0,0l0,0l0,0c0.19,0.2,0.33,0.35,0.41,0.43c0.48,0.51,0.83,1.45,1.09,2.45
	c-0.24,1.4-0.85,3.34-2.28,5.78c-1.37,2.34,0.19,8.98,0.89,8.97c0.7-0.01,0.39-4.07,0.39-4.07s0.52,5.07,1.41,5.04
	c0.88-0.03,0.41-5.26,0.41-5.26s0.8,5.51,1.7,5.19c0.9-0.33,0.6-5.49,0.6-5.49s1.18,5.89,1.66,5.15c0.31-0.47,0.38-2.58,0.43-4.28
	c0.03-0.98,0.06-1.83,0.13-2.15c0.09-0.44,0.72-1.91,1.4-3.5l0,0c0.23-0.53,0.46-1.07,0.68-1.6c0.23,0.31,0.51,1.17,0.81,2.1
	c0.46,1.39,0.96,2.93,1.38,2.93c0.56,0.01,0.42-1.98,0.3-3.71c-0.04-0.59-0.08-1.15-0.09-1.59c-0.04-1.75-2.78-6.36-2.78-6.36l0,0
	c-0.61-1.1-1.32-2.25-1.95-3.21c-1.38-2.43-4.16-6.82-6.9-11.16l0,0C71.25,115.2,67.8,109.75,67.39,108.59z M167.32,68.81l4.5,7
	l-8.7,6.47l0,0c0,0-12.4,27.02-23.72,27.23c-11.31,0.22-19.8-12.39-19.58-13.05c0.22-0.65,7.4-8.29,7.4-8.29h3.7v0
	c0,0,5.22,6.99,9.57,6.99c3.78,0,15.48-13.99,18.45-17.63c0.04-0.06,1.58-2.6,3.06-4.81c0.09-0.17,2.34-4.17,3.67-5.34
	c1.36-1.2,3.3-2.39,3.53-1.9c0.11,0.23-0.55,1.25-1.37,2.53C167.67,68.27,167.5,68.54,167.32,68.81z"/>
<g>
	<defs>
		<path id="SVGID_1_" d="M67.39,108.59c-0.81-2.28,6.26-10.53,6.26-10.53l-9.98-9.88c0,0-9.66,10.47-10.15,17.32
			c-0.46,6.47,18.28,26.17,21.54,29.59l0,0l0,0h0l0,0c0.19,0.2,0.33,0.35,0.41,0.43c0.48,0.51,0.83,1.45,1.09,2.45
			c-0.24,1.4-0.85,3.34-2.28,5.78c-1.37,2.34,0.19,8.98,0.89,8.97s0.39-4.07,0.39-4.07s0.52,5.07,1.41,5.04
			c0.88-0.03,0.41-5.26,0.41-5.26s0.8,5.51,1.7,5.19c0.9-0.33,0.6-5.49,0.6-5.49s1.18,5.89,1.66,5.15c0.31-0.47,0.38-2.58,0.43-4.28
			c0.03-0.98,0.06-1.83,0.13-2.15c0.09-0.44,0.72-1.91,1.4-3.5l0,0c0.23-0.53,0.46-1.07,0.68-1.6c0.23,0.31,0.51,1.17,0.81,2.1
			c0.46,1.39,0.96,2.93,1.38,2.93c0.56,0.01,0.42-1.98,0.3-3.71c-0.04-0.59-0.08-1.15-0.09-1.59c-0.04-1.75-2.78-6.36-2.78-6.36l0,0
			c-0.61-1.1-1.32-2.25-1.95-3.21c-1.38-2.43-4.16-6.82-6.9-11.16l0,0C71.25,115.2,67.8,109.75,67.39,108.59z M167.32,68.81l4.5,7
			l-8.7,6.47l0,0c0,0-12.4,27.02-23.72,27.23c-11.31,0.22-19.8-12.39-19.58-13.05c0.22-0.65,7.4-8.29,7.4-8.29h3.7v0
			c0,0,5.22,6.99,9.57,6.99c3.78,0,15.48-13.99,18.45-17.63c0.04-0.06,1.58-2.6,3.06-4.81c0.09-0.17,2.34-4.17,3.67-5.34
			c1.36-1.2,3.3-2.39,3.53-1.9c0.11,0.23-0.55,1.25-1.37,2.53C167.67,68.27,167.5,68.54,167.32,68.81z"/>
	</defs>
	<clipPath id="SVGID_2_">
		<use xlink:href="#SVGID_1_"  style="overflow:visible;"/>
	</clipPath>
	<path class="st7" d="M66.45,108.93c0.14,0.39,0.48,1.03,0.91,1.77c0.44,0.77,1.03,1.75,1.71,2.85c1.35,2.21,3.1,4.96,4.84,7.73
		l1.69-1.07c-1.75-2.77-3.48-5.51-4.83-7.71c-0.67-1.1-1.25-2.05-1.67-2.8c-0.45-0.78-0.69-1.26-0.76-1.45L66.45,108.93z
		 M73.9,121.27L73.9,121.27l1.7-1.05l0,0L73.9,121.27z M73.91,121.28c2.75,4.35,5.51,8.72,6.88,11.12l1.74-0.99
		c-1.4-2.45-4.19-6.87-6.93-11.2L73.91,121.28z M80.81,132.45c0.62,0.95,1.32,2.08,1.91,3.15l1.75-0.97
		c-0.63-1.13-1.35-2.3-1.99-3.27L80.81,132.45z M84.6,135.19L84.6,135.19l-1.99-0.15l0,0L84.6,135.19z M83.6,135.12
		c-0.86,0.51-0.86,0.51-0.86,0.51c0,0,0,0,0,0c0,0,0,0,0,0c0,0,0,0,0,0c0,0,0,0,0.01,0.01c0,0.01,0.01,0.02,0.02,0.04
		c0.02,0.03,0.05,0.08,0.08,0.14c0.07,0.13,0.18,0.31,0.3,0.53c0.25,0.45,0.59,1.07,0.93,1.74c0.34,0.67,0.67,1.38,0.91,2.01
		c0.26,0.67,0.38,1.14,0.38,1.39l2-0.04c-0.01-0.63-0.25-1.39-0.52-2.07c-0.28-0.72-0.64-1.49-0.99-2.19
		c-0.35-0.7-0.71-1.35-0.97-1.81c-0.13-0.23-0.24-0.43-0.32-0.56c-0.04-0.07-0.07-0.12-0.09-0.15c-0.01-0.02-0.02-0.03-0.02-0.04
		c0,0-0.01-0.01-0.01-0.01c0,0,0,0,0,0c0,0,0,0,0,0c0,0,0,0,0,0C84.46,134.6,84.46,134.6,83.6,135.12z M85.38,141.49
		c0.01,0.47,0.05,1.06,0.09,1.64l2-0.14c-0.04-0.6-0.08-1.13-0.09-1.54L85.38,141.49z M85.47,143.13c0.06,0.89,0.12,1.76,0.1,2.41
		c-0.01,0.34-0.04,0.53-0.06,0.61c-0.01,0.04,0-0.03,0.08-0.12c0.11-0.12,0.32-0.26,0.59-0.25l-0.03,2
		c0.41,0.01,0.74-0.19,0.95-0.43c0.18-0.21,0.28-0.45,0.33-0.62c0.1-0.34,0.14-0.76,0.15-1.13c0.02-0.77-0.05-1.76-0.11-2.61
		L85.47,143.13z M86.18,145.78c0.26,0,0.42,0.12,0.46,0.16c0.05,0.04,0.05,0.06,0.02,0.01c-0.06-0.08-0.14-0.25-0.25-0.51
		c-0.22-0.51-0.44-1.2-0.68-1.91l-1.9,0.63c0.22,0.68,0.48,1.46,0.73,2.06c0.13,0.3,0.27,0.61,0.44,0.86
		c0.08,0.12,0.2,0.27,0.36,0.4c0.15,0.13,0.42,0.29,0.78,0.3L86.18,145.78z M85.73,143.53c-0.15-0.46-0.3-0.93-0.45-1.32
		c-0.13-0.35-0.3-0.78-0.51-1.06l-1.62,1.18c0,0,0.02,0.03,0.08,0.15c0.05,0.11,0.11,0.25,0.17,0.42c0.13,0.35,0.27,0.78,0.43,1.25
		L85.73,143.53z M83.05,141.36c-0.22,0.52-0.45,1.06-0.68,1.59l1.84,0.79c0.23-0.53,0.46-1.08,0.68-1.6L83.05,141.36z M82.37,142.96
		L82.37,142.96l1.85,0.77l0,0L82.37,142.96z M82.37,142.95c-0.34,0.79-0.67,1.56-0.92,2.19c-0.24,0.59-0.46,1.16-0.53,1.5l1.96,0.4
		c0,0,0,0,0-0.01c0-0.01,0-0.01,0.01-0.02c0.01-0.02,0.01-0.05,0.02-0.08c0.02-0.07,0.05-0.15,0.09-0.26
		c0.08-0.21,0.18-0.47,0.3-0.78c0.25-0.61,0.57-1.37,0.91-2.16L82.37,142.95z M80.92,146.64c-0.05,0.25-0.08,0.62-0.1,0.98
		c-0.02,0.39-0.03,0.85-0.05,1.34l2,0.06c0.02-0.49,0.03-0.94,0.05-1.3c0.02-0.39,0.04-0.61,0.06-0.68L80.92,146.64z M80.77,148.96
		c-0.03,0.86-0.06,1.78-0.12,2.55c-0.03,0.39-0.07,0.71-0.11,0.96c-0.05,0.3-0.09,0.33-0.04,0.25l1.67,1.09
		c0.2-0.31,0.29-0.72,0.34-1c0.06-0.34,0.1-0.73,0.13-1.14c0.06-0.83,0.1-1.8,0.12-2.65L80.77,148.96z M80.5,152.73
		c0.06-0.1,0.32-0.42,0.8-0.39c0.38,0.02,0.57,0.26,0.58,0.27c0.05,0.05,0.01,0.03-0.08-0.19c-0.15-0.38-0.33-1-0.51-1.68
		c-0.17-0.67-0.33-1.37-0.45-1.91c-0.06-0.27-0.11-0.49-0.14-0.65c-0.02-0.08-0.03-0.14-0.04-0.18c0-0.02-0.01-0.04-0.01-0.05
		c0-0.01,0-0.01,0-0.01c0,0,0,0,0,0c0,0,0,0,0,0c0,0,0,0,0,0c0,0,0,0-0.98,0.2c-0.98,0.2-0.98,0.2-0.98,0.2c0,0,0,0,0,0c0,0,0,0,0,0
		c0,0,0,0,0,0c0,0,0,0.01,0,0.01c0,0.01,0.01,0.03,0.01,0.05c0.01,0.04,0.02,0.11,0.04,0.19c0.03,0.16,0.08,0.39,0.14,0.67
		c0.12,0.55,0.28,1.27,0.47,1.98c0.18,0.69,0.38,1.41,0.59,1.93c0.09,0.22,0.23,0.54,0.43,0.77c0.09,0.1,0.35,0.38,0.8,0.41
		c0.55,0.03,0.87-0.32,1-0.52L80.5,152.73z M79.67,148.13c-1,0.06-1,0.06-1,0.06c0,0,0,0,0,0c0,0,0,0,0,0c0,0,0,0,0,0
		c0,0,0,0.01,0,0.01c0,0.01,0,0.02,0,0.04c0,0.04,0,0.09,0.01,0.16c0.01,0.14,0.01,0.33,0.02,0.57c0.01,0.48,0.02,1.11,0,1.75
		c-0.02,0.65-0.06,1.26-0.15,1.72c-0.04,0.23-0.09,0.37-0.12,0.44c-0.05,0.11,0-0.1,0.29-0.2l0.68,1.88
		c0.51-0.18,0.75-0.62,0.85-0.86c0.13-0.28,0.21-0.6,0.26-0.9c0.11-0.61,0.16-1.34,0.18-2.03c0.02-0.69,0.01-1.37,0-1.87
		c-0.01-0.25-0.02-0.46-0.02-0.61c0-0.07-0.01-0.13-0.01-0.17c0-0.02,0-0.04,0-0.05c0-0.01,0-0.01,0-0.01c0,0,0,0,0,0c0,0,0,0,0,0
		c0,0,0,0,0,0C80.67,148.07,80.67,148.07,79.67,148.13z M78.73,152.68c0.19-0.07,0.39-0.05,0.55,0.01c0.13,0.05,0.19,0.13,0.2,0.13
		c0,0-0.05-0.06-0.14-0.27c-0.17-0.39-0.33-0.98-0.49-1.63c-0.15-0.64-0.27-1.3-0.36-1.8c-0.04-0.25-0.08-0.46-0.1-0.6
		c-0.01-0.07-0.02-0.13-0.03-0.17c0-0.02-0.01-0.03-0.01-0.04c0,0,0-0.01,0-0.01c0,0,0,0,0,0c0,0,0,0,0,0c0,0,0,0,0,0
		c0,0,0,0-0.99,0.14c-0.99,0.14-0.99,0.14-0.99,0.14c0,0,0,0,0,0c0,0,0,0,0,0c0,0,0,0,0,0c0,0,0,0.01,0,0.01
		c0,0.01,0,0.03,0.01,0.05c0.01,0.04,0.02,0.1,0.03,0.18c0.02,0.15,0.06,0.37,0.11,0.64c0.09,0.52,0.22,1.22,0.38,1.92
		c0.16,0.68,0.36,1.41,0.6,1.96c0.11,0.27,0.27,0.58,0.49,0.82c0.21,0.23,0.73,0.65,1.41,0.4L78.73,152.68z M77.37,148.43
		c-1,0.09-1,0.09-1,0.09c0,0,0,0,0,0c0,0,0,0,0,0c0,0,0,0,0,0c0,0,0,0.01,0,0.01c0,0.01,0,0.02,0,0.04c0,0.04,0.01,0.09,0.01,0.16
		c0.01,0.14,0.03,0.34,0.04,0.58c0.03,0.48,0.06,1.11,0.06,1.74c0,0.64-0.02,1.23-0.09,1.64c-0.02,0.1-0.03,0.18-0.05,0.24
		c-0.02,0.06-0.03,0.09-0.03,0.08c0,0,0.01-0.02,0.02-0.04c0.02-0.02,0.04-0.06,0.09-0.1c0.1-0.09,0.26-0.18,0.48-0.19l0.07,2
		c0.68-0.02,1.01-0.55,1.13-0.79c0.14-0.28,0.21-0.6,0.25-0.88c0.09-0.58,0.12-1.3,0.11-1.97c0-0.68-0.04-1.36-0.07-1.86
		c-0.02-0.25-0.03-0.46-0.04-0.61c-0.01-0.07-0.01-0.13-0.01-0.17c0-0.02,0-0.04,0-0.05c0-0.01,0-0.01,0-0.01c0,0,0,0,0,0
		c0,0,0,0,0,0c0,0,0,0,0,0C78.37,148.34,78.37,148.34,77.37,148.43z M76.92,152.69c0.41-0.01,0.57,0.27,0.53,0.2
		c-0.02-0.03-0.07-0.12-0.15-0.32c-0.14-0.39-0.28-0.96-0.4-1.58c-0.12-0.61-0.21-1.22-0.27-1.68c-0.03-0.23-0.05-0.42-0.07-0.56
		c-0.01-0.07-0.01-0.12-0.02-0.15c0-0.02,0-0.03,0-0.04c0,0,0-0.01,0-0.01c0,0,0,0,0,0c0,0,0,0,0,0c0,0,0,0,0,0c0,0,0,0-0.99,0.1
		c-0.99,0.1-0.99,0.1-0.99,0.1c0,0,0,0,0,0c0,0,0,0,0,0c0,0,0,0,0,0c0,0,0,0.01,0,0.01c0,0.01,0,0.03,0,0.05
		c0,0.04,0.01,0.1,0.02,0.17c0.02,0.14,0.04,0.35,0.07,0.59c0.06,0.49,0.16,1.14,0.29,1.8c0.12,0.65,0.28,1.34,0.49,1.89
		c0.1,0.27,0.23,0.56,0.41,0.81c0.15,0.21,0.53,0.64,1.16,0.62L76.92,152.69z M75.55,148.64c-1,0.07-1,0.07-1,0.07v0c0,0,0,0,0,0
		c0,0,0,0,0,0c0,0,0,0,0,0.01c0,0.01,0,0.02,0,0.03c0,0.03,0,0.07,0.01,0.12c0.01,0.11,0.02,0.26,0.02,0.44
		c0.02,0.37,0.03,0.86,0.03,1.34c-0.01,0.49-0.03,0.93-0.09,1.23c-0.03,0.16-0.05,0.2-0.04,0.18c0.01-0.01,0.05-0.09,0.15-0.17
		c0.11-0.09,0.29-0.18,0.51-0.18l0.02,2c0.65-0.01,0.98-0.5,1.09-0.71c0.13-0.25,0.2-0.52,0.24-0.75c0.09-0.47,0.11-1.05,0.12-1.57
		c0.01-0.53-0.01-1.06-0.03-1.46c-0.01-0.2-0.02-0.36-0.03-0.48c0-0.06-0.01-0.1-0.01-0.14c0-0.02,0-0.03,0-0.04c0,0,0-0.01,0-0.01
		c0,0,0,0,0,0c0,0,0,0,0,0c0,0,0,0,0,0C76.55,148.57,76.55,148.57,75.55,148.64z M75.15,151.71c0.35,0,0.55,0.19,0.57,0.21
		c0.04,0.04,0.04,0.05,0.01,0c-0.06-0.1-0.15-0.3-0.25-0.6c-0.2-0.59-0.41-1.44-0.55-2.37c-0.15-0.93-0.23-1.91-0.19-2.79
		c0.03-0.9,0.19-1.55,0.4-1.92l-1.73-1.01c-0.47,0.8-0.64,1.85-0.67,2.86c-0.04,1.03,0.06,2.15,0.22,3.17
		c0.16,1.02,0.39,1.98,0.63,2.7c0.12,0.36,0.26,0.69,0.41,0.96c0.07,0.13,0.18,0.29,0.32,0.43c0.12,0.12,0.41,0.37,0.85,0.36
		L75.15,151.71z M75.13,144.25c1.48-2.53,2.14-4.58,2.41-6.12l-1.97-0.34c-0.22,1.27-0.78,3.1-2.16,5.44L75.13,144.25z
		 M77.52,137.71c-0.26-1.01-0.66-2.18-1.33-2.89l-1.46,1.37c0.29,0.31,0.59,1.02,0.85,2.02L77.52,137.71z M76.2,134.82
		c-0.08-0.09-0.22-0.24-0.41-0.43l-1.45,1.38c0.19,0.2,0.33,0.34,0.4,0.42L76.2,134.82z M75.78,134.39L75.78,134.39l-1.45,1.38l0,0
		L75.78,134.39z M75.72,134.33L75.72,134.33l-1.33,1.49l0,0L75.72,134.33z M75.77,134.37L75.77,134.37l-1.41,1.41l0,0L75.77,134.37z
		 M75.8,134.41L75.8,134.41l-1.49,1.34l0,0L75.8,134.41z M75.78,134.39c-1.63-1.71-7.1-7.46-12.11-13.59
		c-2.51-3.07-4.88-6.2-6.59-8.96c-0.86-1.38-1.53-2.64-1.98-3.73c-0.45-1.11-0.63-1.96-0.59-2.54l-1.99-0.14
		c-0.07,1.04,0.23,2.22,0.73,3.44c0.5,1.24,1.24,2.6,2.13,4.03c1.78,2.86,4.21,6.08,6.74,9.17c5.06,6.19,10.59,12,12.21,13.71
		L75.78,134.39z M54.52,105.56c0.11-1.52,0.74-3.32,1.69-5.22c0.94-1.88,2.17-3.79,3.39-5.5c1.22-1.71,2.42-3.21,3.33-4.29
		c0.45-0.54,0.82-0.97,1.08-1.26c0.13-0.15,0.23-0.26,0.3-0.34c0.03-0.04,0.06-0.07,0.08-0.09c0.01-0.01,0.01-0.02,0.02-0.02
		c0,0,0,0,0,0c0,0,0,0,0,0c0,0,0,0,0,0c0,0,0,0-0.73-0.68c-0.73-0.68-0.74-0.68-0.74-0.68c0,0,0,0,0,0c0,0,0,0,0,0
		c0,0,0,0-0.01,0.01c-0.01,0.01-0.01,0.01-0.02,0.02c-0.02,0.02-0.05,0.05-0.08,0.09c-0.07,0.08-0.18,0.2-0.31,0.35
		c-0.27,0.31-0.66,0.75-1.12,1.3c-0.93,1.1-2.17,2.65-3.42,4.41c-1.26,1.76-2.54,3.76-3.55,5.76c-1,1.99-1.76,4.07-1.9,5.97
		L54.52,105.56z M62.97,88.88l9.98,9.88l1.41-1.42l-9.98-9.88L62.97,88.88z M73.65,98.06c-0.76-0.65-0.76-0.65-0.76-0.65
		c0,0,0,0,0,0c0,0,0,0,0,0c0,0,0,0,0,0.01c0,0-0.01,0.01-0.02,0.02c-0.01,0.02-0.03,0.04-0.06,0.07c-0.05,0.06-0.13,0.15-0.23,0.27
		c-0.2,0.23-0.47,0.57-0.8,0.98c-0.66,0.82-1.53,1.94-2.38,3.13c-0.84,1.19-1.69,2.48-2.27,3.64c-0.29,0.58-0.53,1.16-0.67,1.7
		c-0.13,0.51-0.21,1.13-0.01,1.7l1.88-0.67c0,0.01-0.01-0.02-0.01-0.12c0-0.09,0.02-0.23,0.07-0.4c0.09-0.35,0.27-0.79,0.53-1.3
		c0.51-1.03,1.29-2.22,2.11-3.38c0.82-1.15,1.66-2.24,2.31-3.04c0.32-0.4,0.59-0.73,0.78-0.95c0.09-0.11,0.17-0.2,0.22-0.26
		c0.03-0.03,0.04-0.05,0.06-0.07c0.01-0.01,0.01-0.01,0.01-0.02c0,0,0,0,0,0c0,0,0,0,0,0c0,0,0,0,0,0
		C74.41,98.71,74.41,98.71,73.65,98.06z M166.99,67.47c-0.17,0.26-0.34,0.53-0.51,0.8l1.69,1.07c0.17-0.27,0.34-0.54,0.51-0.79
		L166.99,67.47z M168.3,65.91c-0.12-0.25-0.08-0.46-0.07-0.47c0.01-0.04,0.01-0.05,0-0.01c-0.03,0.08-0.1,0.22-0.22,0.43
		c-0.24,0.41-0.59,0.96-1.01,1.61l1.68,1.08c0.41-0.63,0.79-1.23,1.06-1.7c0.13-0.23,0.26-0.47,0.34-0.68
		c0.04-0.11,0.09-0.24,0.11-0.39c0.02-0.12,0.06-0.41-0.09-0.72L168.3,65.91z M166.34,68.14c0.64-0.56,1.4-1.12,2.02-1.46
		c0.32-0.18,0.53-0.27,0.64-0.3c0.06-0.02,0.01,0.01-0.11-0.01c-0.16-0.02-0.44-0.14-0.59-0.46l1.81-0.85
		c-0.21-0.44-0.61-0.62-0.92-0.67c-0.27-0.04-0.53,0.01-0.7,0.05c-0.36,0.1-0.75,0.29-1.12,0.49c-0.75,0.43-1.63,1.07-2.35,1.7
		L166.34,68.14z M162.88,73.21c0.04-0.08,0.62-1.1,1.34-2.25c0.75-1.19,1.58-2.36,2.12-2.83l-1.32-1.5
		c-0.79,0.7-1.76,2.12-2.48,3.26c-0.75,1.19-1.35,2.25-1.4,2.34L162.88,73.21z M159.8,78.06c0.03-0.06,1.57-2.58,3.04-4.78
		l-1.66-1.11c-1.49,2.23-3.05,4.79-3.08,4.85L159.8,78.06z M140.49,96.16c0.74,0,1.52-0.33,2.25-0.74c0.76-0.43,1.58-1.03,2.44-1.73
		c1.72-1.41,3.66-3.3,5.56-5.29c3.79-3.98,7.48-8.41,8.97-10.23l-1.55-1.27c-1.48,1.81-5.13,6.2-8.87,10.12
		c-1.87,1.96-3.75,3.79-5.38,5.12c-0.81,0.67-1.54,1.19-2.16,1.54c-0.65,0.37-1.06,0.48-1.26,0.48V96.16z M130.92,88.18
		c-0.8,0.6-0.8,0.6-0.8,0.6c0,0,0,0,0,0c0,0,0,0,0,0c0,0,0,0,0,0.01c0,0,0.01,0.01,0.01,0.02c0.01,0.01,0.03,0.04,0.05,0.06
		c0.04,0.05,0.1,0.13,0.18,0.23c0.16,0.2,0.39,0.48,0.67,0.82c0.57,0.67,1.39,1.58,2.35,2.48c0.95,0.9,2.07,1.83,3.26,2.53
		c1.18,0.7,2.5,1.23,3.84,1.23v-2c-0.83,0-1.79-0.34-2.82-0.95c-1.02-0.6-2.02-1.42-2.91-2.27c-0.89-0.84-1.65-1.69-2.2-2.32
		c-0.27-0.32-0.48-0.58-0.63-0.76c-0.07-0.09-0.13-0.16-0.16-0.21c-0.02-0.02-0.03-0.04-0.04-0.05c0-0.01-0.01-0.01-0.01-0.01
		c0,0,0,0,0,0c0,0,0,0,0,0l0,0C131.72,87.58,131.72,87.58,130.92,88.18z M129.92,88.17L129.92,88.17l2,0v0H129.92z M127.22,89.17
		h3.7v-2h-3.7V89.17z M120.77,96.78c-0.04,0.12-0.09,0.16-0.01,0.06c0.05-0.07,0.12-0.16,0.22-0.29c0.2-0.26,0.49-0.6,0.84-1
		c0.7-0.8,1.61-1.81,2.52-2.8c0.91-0.99,1.81-1.97,2.49-2.69c0.34-0.36,0.62-0.66,0.81-0.87c0.1-0.1,0.18-0.19,0.23-0.24
		c0.03-0.03,0.05-0.05,0.06-0.06c0.01-0.01,0.01-0.01,0.02-0.02c0,0,0,0,0,0c0,0,0,0,0,0c0,0,0,0,0,0c0,0,0,0-0.73-0.68
		c-0.73-0.68-0.73-0.68-0.73-0.68c0,0,0,0,0,0c0,0,0,0,0,0c0,0,0,0,0,0c0,0-0.01,0.01-0.02,0.02c-0.01,0.01-0.03,0.04-0.06,0.06
		c-0.05,0.06-0.13,0.14-0.23,0.24c-0.2,0.21-0.48,0.51-0.82,0.88c-0.68,0.73-1.58,1.71-2.5,2.7c-0.91,1-1.84,2.02-2.55,2.84
		c-0.36,0.41-0.66,0.77-0.89,1.06c-0.11,0.14-0.22,0.28-0.3,0.39c-0.05,0.08-0.18,0.26-0.25,0.46L120.77,96.78z M139.39,108.51
		c-5.28,0.1-9.99-2.8-13.42-5.93c-1.7-1.56-3.05-3.14-3.96-4.36c-0.45-0.61-0.79-1.13-1-1.49c-0.11-0.18-0.17-0.31-0.2-0.38
		c-0.02-0.04-0.01-0.04-0.01-0.01c0,0.02,0.01,0.06,0.02,0.12c0,0.05,0,0.18-0.05,0.33l-1.9-0.64c-0.1,0.3-0.04,0.57-0.02,0.64
		c0.03,0.12,0.07,0.23,0.1,0.32c0.08,0.18,0.18,0.39,0.31,0.62c0.26,0.45,0.64,1.03,1.13,1.69c0.98,1.32,2.41,3,4.22,4.65
		c3.59,3.28,8.78,6.57,14.81,6.46L139.39,108.51z M163.12,82.28c-0.91-0.42-0.91-0.42-0.91-0.42c0,0,0,0,0,0c0,0,0,0,0,0
		c0,0,0,0.01-0.01,0.01c-0.01,0.01-0.01,0.03-0.03,0.06c-0.02,0.05-0.06,0.12-0.1,0.22c-0.09,0.19-0.23,0.48-0.41,0.85
		c-0.36,0.73-0.88,1.78-1.55,3.04c-1.33,2.52-3.22,5.87-5.45,9.22c-2.24,3.36-4.8,6.69-7.47,9.17c-2.7,2.51-5.36,4.03-7.82,4.08
		l0.04,2c3.21-0.06,6.33-2,9.14-4.61c2.84-2.64,5.5-6.11,7.77-9.53c2.28-3.43,4.2-6.84,5.55-9.4c0.68-1.28,1.21-2.34,1.57-3.09
		c0.18-0.37,0.32-0.67,0.42-0.87c0.05-0.1,0.08-0.18,0.11-0.23c0.01-0.03,0.02-0.05,0.03-0.06c0-0.01,0.01-0.01,0.01-0.02
		c0,0,0,0,0,0c0,0,0,0,0,0C164.03,82.7,164.03,82.7,163.12,82.28z M162.27,82.81L162.27,82.81l1.7-1.05l0,0L162.27,82.81z
		 M171.23,75.01l-8.7,6.47l1.19,1.61l8.7-6.47L171.23,75.01z M166.48,69.35l4.5,7l1.68-1.08l-4.5-7L166.48,69.35z M74.75,120.74
		l0.85-0.52l-0.01-0.01L74.75,120.74z M74.75,120.74l-0.85,0.52l0.01,0.01L74.75,120.74z M81.65,131.91l-0.87,0.49l0.01,0.03
		l0.02,0.02L81.65,131.91z M83.6,135.12l-0.87,0.48l1.62,2.92l0.25-3.33L83.6,135.12z M83.6,135.12l0.86-0.51l-1.62-2.71l-0.24,3.15
		L83.6,135.12z M86.38,141.47l1-0.02v0L86.38,141.47z M86.47,143.07l1-0.07L86.47,143.07z M86.17,146.78l0.01-1h0L86.17,146.78z
		 M84.78,143.85l0.95-0.31l0,0L84.78,143.85z M83.97,141.75l0.81-0.59l-1.04-1.44l-0.69,1.64L83.97,141.75z M83.29,143.34
		l-0.92-0.39l0,0.01L83.29,143.34z M83.29,143.34l0.92,0.39l0-0.01L83.29,143.34z M81.9,146.84l-0.98-0.2L81.9,146.84z
		 M81.77,148.99l1,0.03v0L81.77,148.99z M81.34,153.27l0.84,0.55L81.34,153.27z M79.67,148.13l0.98-0.2l-1.98,0.25L79.67,148.13z
		 M79.07,153.62l0.34,0.94l0,0L79.07,153.62z M77.37,148.43l0.99-0.14l-1.99,0.23L77.37,148.43z M76.96,153.68l0.03,1l0,0
		L76.96,153.68z M75.55,148.64l0.99-0.1l-1.99,0.18L75.55,148.64z M75.16,152.71l0.01,1L75.16,152.71z M74.27,143.74l-0.86-0.51l0,0
		L74.27,143.74z M76.55,137.96l0.99,0.17l0.04-0.21l-0.05-0.21L76.55,137.96z M75.47,135.51l0.73-0.68L75.47,135.51z M75.06,135.08
		l0.72-0.69l0,0L75.06,135.08z M75.06,135.08l0.72-0.69l-0.03-0.03l-0.03-0.03L75.06,135.08z M75.06,135.08l-0.71,0.71l0.02,0.02
		l0.02,0.02L75.06,135.08z M75.06,135.08l-0.74,0.67l0.02,0.02l0.02,0.02L75.06,135.08z M75.06,135.08l0.74-0.67l-0.01-0.01
		l-0.01-0.01L75.06,135.08z M53.52,105.49l1,0.07l0,0L53.52,105.49z M63.67,88.17l0.7-0.71l-0.74-0.73l-0.7,0.76L63.67,88.17z
		 M67.39,108.59l0.94-0.34L67.39,108.59z M73.65,98.06l0.76,0.65L75.01,98l-0.66-0.65L73.65,98.06z M167.83,68.01l0.84,0.54
		L167.83,68.01z M169.2,65.48l0.9-0.43L169.2,65.48z M165.68,67.39l0.66,0.75L165.68,67.39z M162.01,72.73l0.83,0.56l0.02-0.03
		l0.02-0.03L162.01,72.73z M158.95,77.54l0.77,0.63l0.04-0.05l0.04-0.06L158.95,77.54z M130.92,88.18h-1v0.33l0.2,0.27L130.92,88.18
		z M130.92,88.17h1v-1h-1V88.17z M127.22,88.17v-1h-0.43l-0.3,0.32L127.22,88.17z M119.82,96.47l-0.95-0.32L119.82,96.47z
		 M139.41,109.51l-0.02-1h0L139.41,109.51z M163.12,82.28l0.91,0.42l0.22-0.49l-0.28-0.46L163.12,82.28z M163.12,82.28l-0.6-0.8
		l-0.74,0.55l0.49,0.78L163.12,82.28z M171.82,75.81l0.6,0.8l0.75-0.56l-0.51-0.79L171.82,75.81z M167.32,68.81l-0.84-0.54
		l-0.34,0.54l0.35,0.54L167.32,68.81z"/>
</g>
<path class="st4" d="M167.2,25.63c-6.25,0-11.33,7.45-11.33,16.6c0,9.15,5.08,16.6,11.33,16.6c6.25,0,11.33-7.45,11.33-16.6
	C178.53,33.08,173.45,25.63,167.2,25.63z M167.2,60.64c-7.25,0-13.14-8.26-13.14-18.41s5.9-18.41,13.14-18.41
	c7.25,0,13.14,8.26,13.14,18.41C180.34,52.38,174.45,60.64,167.2,60.64z"/>
<path class="st4" d="M167.78,75.01V59.74h-1.81V74.3c0,2.72-0.3,5.47-1.27,8c-0.16,0.4-0.2,0.87-0.1,1.35
	c0.19,0.87,0.9,1.58,1.77,1.76c1.51,0.32,2.84-0.82,2.84-2.28c0-0.24-0.04-0.47-0.1-0.69C168.34,80.03,167.78,77.55,167.78,75.01z"
	/>
<path class="st5" d="M118.52,127.67c0,0,6.75,8.18,9.8,17.74c3.04,9.57,1.08,29.33,1.08,29.33h-22.63c0,0-0.22-18.26-1.09-18.48
	c-0.87-0.22-5.87,18.48-5.87,18.48H75.88c0,0-5.98-29.79,10.93-47.07l15.83,0.98L118.52,127.67z"/>
<path class="st4" d="M118.52,123.43v4.24c0,0-8.05,7.83-31.71,0l-0.05-4.24l20.78-1.3L118.52,123.43z"/>
<path class="st8" d="M110.48,72.29c0,0,8.38-0.31,12.64,2.62c3.04,2.1,9.76,13.94,9.76,13.94l-7.71,6.55c0,0,1.84,7.15-5.34,10.73
	l-1.3,17.29c0,0-13.49,7.83-31.76,0c0,0-3.48-32.4-6.75-29.57c-3.26,2.83-5.22,5.33-5.22,5.33L62.6,87.11
	c0,0,13.28-13.3,17.68-15.38c10.31-4.89,18.65-0.19,18.65-0.19L110.48,72.29z"/>
<path class="st6" d="M90.62,40.4c0.41-6.92,6.02-12.54,12.95-12.94c8.05-0.47,14.7,5.94,14.64,13.86c0,0.17-0.01,0.34-0.02,0.51
	l0,0.02l0.01,0c0,0.43,0,0.95,0.01,1.54c0.07,5.97,0.23,19.32-7.68,20.21l-0.06,8.69c0,0-3.54,3.33-11.54-0.74l0.52-3.47
	c0.52-3.44-0.37-6.91-2.33-9.78c-0.76-1.11-1.46-2.37-2.14-3.79c-2.94,0.7-5.41-3.01-3.9-4.5c0.49-0.48,1.08-0.69,1.66-0.73
	c-0.32-0.81-0.65-1.64-0.98-2.51C90.91,44.83,90.48,42.67,90.62,40.4z"/>
<g>
	<defs>
		<path id="SVGID_3_" d="M90.62,40.4c0.41-6.92,6.02-12.54,12.95-12.94c8.05-0.47,14.7,5.94,14.64,13.86c0,0.17-0.01,0.34-0.02,0.51
			l0,0.02l0.01,0c0,0.43,0,0.95,0.01,1.54c0.07,5.97,0.23,19.32-7.68,20.21l-0.06,8.69c0,0-3.54,3.33-11.54-0.74l0.52-3.47
			c0.52-3.44-0.37-6.91-2.33-9.78c-0.76-1.11-1.46-2.37-2.14-3.79c-2.94,0.7-5.41-3.01-3.9-4.5c0.49-0.48,1.08-0.69,1.66-0.73
			c-0.32-0.81-0.65-1.64-0.98-2.51C90.91,44.83,90.48,42.67,90.62,40.4z"/>
	</defs>
	<clipPath id="SVGID_4_">
		<use xlink:href="#SVGID_3_"  style="overflow:visible;"/>
	</clipPath>
	<path class="st9" d="M89.62,40.34c-0.15,2.44,0.31,4.76,1.22,6.83l1.83-0.81c-0.79-1.79-1.18-3.79-1.05-5.91L89.62,40.34z
		 M90.82,47.13c0.34,0.87,0.66,1.71,0.99,2.52l1.86-0.74c-0.32-0.8-0.64-1.64-0.98-2.5L90.82,47.13z M92.67,48.28
		c-0.77,0.06-1.59,0.34-2.28,1.02l1.4,1.43c0.29-0.29,0.64-0.42,1.03-0.45L92.67,48.28z M90.38,49.29
		c-0.65,0.64-0.82,1.49-0.73,2.26c0.09,0.76,0.44,1.51,0.93,2.14c0.96,1.24,2.68,2.25,4.64,1.79l-0.46-1.95
		c-0.98,0.23-1.96-0.25-2.6-1.07c-0.31-0.4-0.48-0.81-0.52-1.15c-0.04-0.32,0.04-0.49,0.15-0.6L90.38,49.29z M94.08,54.94
		c0.69,1.45,1.42,2.76,2.21,3.92l1.65-1.13c-0.72-1.05-1.39-2.27-2.06-3.66L94.08,54.94z M96.29,58.86
		c1.83,2.68,2.65,5.89,2.17,9.07l1.98,0.3c0.56-3.71-0.4-7.43-2.5-10.49L96.29,58.86z M98.46,67.93l-0.52,3.47l1.98,0.3l0.52-3.47
		L98.46,67.93z M98.48,72.44c4.16,2.11,7.26,2.36,9.4,1.99c1.06-0.18,1.86-0.51,2.4-0.81c0.27-0.15,0.48-0.29,0.63-0.4
		c0.07-0.05,0.13-0.1,0.17-0.14c0.02-0.02,0.04-0.03,0.05-0.05c0.01-0.01,0.01-0.01,0.02-0.02c0,0,0,0,0.01-0.01c0,0,0,0,0,0
		c0,0,0,0,0,0c0,0,0,0-0.68-0.73c-0.69-0.73-0.68-0.73-0.68-0.73c0,0,0,0,0,0c0,0,0,0,0,0c0,0,0,0,0,0c0,0,0,0,0,0
		c0,0,0,0-0.01,0.01c-0.01,0.01-0.04,0.03-0.08,0.06c-0.08,0.06-0.21,0.15-0.39,0.25c-0.37,0.2-0.96,0.45-1.78,0.59
		c-1.64,0.28-4.31,0.15-8.15-1.8L98.48,72.44z M111.48,72.3l0.06-8.69l-2-0.01l-0.06,8.69L111.48,72.3z M110.65,64.59
		c4.66-0.52,6.75-4.72,7.7-8.98c0.97-4.33,0.91-9.27,0.87-12.24l-2,0.02c0.04,3,0.09,7.72-0.82,11.78
		c-0.93,4.14-2.71,7.06-5.97,7.43L110.65,64.59z M119.22,43.37c-0.01-0.59-0.01-1.1-0.01-1.52l-2-0.01c0,0.44,0,0.97,0.01,1.55
		L119.22,43.37z M117.96,40.88l-0.01,0l0.48,1.94l0.01,0L117.96,40.88z M119.19,41.89l0-0.02l-2-0.08l0,0.02L119.19,41.89z
		 M119.19,41.87c0.01-0.17,0.01-0.35,0.02-0.53l-2-0.04c0,0.16-0.01,0.32-0.02,0.49L119.19,41.87z M119.21,41.32
		c0.06-8.5-7.07-15.38-15.7-14.87l0.12,2c7.47-0.44,13.63,5.51,13.58,12.86L119.21,41.32z M103.51,26.46
		c-7.43,0.43-13.44,6.46-13.89,13.88l2,0.12c0.38-6.41,5.59-11.63,12.01-12L103.51,26.46z M91.76,46.77l0.93-0.36l-0.01-0.02
		l-0.01-0.02L91.76,46.77z M92.74,49.27l0.07,1l1.36-0.1l-0.5-1.26L92.74,49.27z M91.08,50.01l-0.7-0.71l0,0L91.08,50.01z
		 M94.98,54.51l0.9-0.43l-0.35-0.73l-0.78,0.19L94.98,54.51z M97.12,58.3l0.83-0.56l0,0L97.12,58.3z M99.45,68.08l-0.99-0.15l0,0
		L99.45,68.08z M98.93,71.55l-0.99-0.15l-0.11,0.71l0.64,0.33L98.93,71.55z M110.48,72.29l0.69,0.73l0.31-0.29l0-0.43L110.48,72.29z
		 M110.53,63.6l-0.11-0.99l-0.88,0.1l-0.01,0.89L110.53,63.6z M118.22,43.38l-1,0.01L118.22,43.38z M118.21,41.85l1,0.01l0.01-1.29
		l-1.25,0.31L118.21,41.85z M118.19,41.85l-1-0.04l-0.05,1.33l1.29-0.32L118.19,41.85z M118.19,41.83l-1-0.04v0L118.19,41.83z
		 M118.21,41.32l1,0.02l0-0.01L118.21,41.32z M90.62,40.4l1,0.06l0,0L90.62,40.4z M103.57,27.45l0.06,1l0,0L103.57,27.45z"/>
</g>
<path class="st4" d="M115.38,48.2c0.07-0.66-0.41-1.25-1.08-1.32s-1.26,0.41-1.32,1.08c-0.07,0.66,0.41,1.25,1.08,1.32
	C114.72,49.35,115.31,48.87,115.38,48.2z"/>
<path class="st4" d="M104,49.4c0.07-0.66-0.41-1.25-1.08-1.32s-1.26,0.41-1.32,1.08c-0.07,0.66,0.41,1.25,1.08,1.32
	S103.93,50.07,104,49.4z"/>
<path class="st8" d="M113.54,55.87c0,0-1.66-0.94-2.26-0.74c-0.61,0.2-0.91,0.96-0.91,0.96s-0.4-0.72-1.15-0.7
	c-0.75,0.03-3.18,1.56-3.18,1.56s2.51,3.07,4.75,2.55C113.08,58.96,113.54,55.87,113.54,55.87z"/>
<path class="st4" d="M99.93,47.19c-0.14,0.01-0.29-0.04-0.4-0.15c-0.19-0.2-0.19-0.52,0.01-0.71c0.06-0.06,1.5-1.41,3.74-1.48
	c0.28-0.01,0.51,0.21,0.52,0.48s-0.23,0.51-0.48,0.52c-1.87,0.06-3.06,1.19-3.07,1.2C100.15,47.13,100.04,47.18,99.93,47.19z"/>
<path class="st4" d="M112.32,44.27c-0.13-0.07-0.22-0.19-0.25-0.34c-0.05-0.27,0.12-0.53,0.39-0.59c0.08-0.02,2-0.39,3.94,0.76
	c0.24,0.14,0.32,0.45,0.18,0.68c-0.14,0.24-0.46,0.31-0.68,0.18c-1.61-0.96-3.22-0.65-3.23-0.65
	C112.54,44.34,112.42,44.32,112.32,44.27z"/>
<path class="st4" d="M109.39,54.03c1.42-0.21,1.9-1.27,1.95-1.89c0.01-0.11-0.03-0.22-0.09-0.3c-1.27-1.57-1.12-3.85-1.12-3.87
	c0.02-0.23-0.16-0.43-0.39-0.45c-0.23-0.02-0.43,0.16-0.45,0.39c-0.01,0.1-0.17,2.49,1.19,4.31c-0.09,0.33-0.43,1.07-1.79,1
	c-0.24-0.01-0.43,0.16-0.44,0.4c-0.01,0.23,0.16,0.43,0.4,0.44C108.92,54.07,109.16,54.06,109.39,54.03z"/>
<path class="st1" d="M106.04,56.94c0,0,4.59-0.41,7.5-1.08c0,0-1.24,2.39-3,2.49C108.79,58.45,106.04,56.94,106.04,56.94z"/>
<path class="st4" d="M102.39,41.4c-2.45,2.85-5.05,5.65-6.88,8.91c-0.2,0.36-1.64,3.06-1.23,3.38c-2.23-1.72-3.65-4.26-4.84-6.81
	c-2.07-4.42-1.42-9.7,1.17-13.76c2.56-4.01,6.82-6.07,11.5-6.43c5.02-0.38,10.48,1.34,13.52,5.55c2.85,3.95,2.95,8.91,3.25,13.57
	c-0.34-5.23-7.34-9.18-11.55-11.05c0.12,0.05-3.17,4.5-3.34,4.71C103.47,40.13,102.93,40.77,102.39,41.4z"/>
<path class="st3" d="M97.74,103.76c-6.12,0-8.67-6.11-8.7-6.18c-0.05-0.11,0.01-0.25,0.13-0.29c0.11-0.05,0.25,0.01,0.29,0.13
	c0.03,0.06,2.46,5.89,8.28,5.89c5.82,0,8.08-4.24,8.1-4.28c0.06-0.11,0.19-0.15,0.3-0.1s0.15,0.19,0.1,0.3
	C106.22,99.28,103.85,103.76,97.74,103.76z"/>
<path class="st3" d="M125.17,95.64c-0.11,0-0.21-0.09-0.23-0.2c0-0.04-0.53-4.13-3.69-7.1c-0.09-0.09-0.1-0.23-0.01-0.32
	c0.09-0.09,0.23-0.1,0.32-0.01c3.29,3.09,3.81,7.2,3.83,7.38c0.01,0.13-0.07,0.24-0.2,0.25C125.18,95.64,125.17,95.64,125.17,95.64z
	"/>
<ellipse class="st10" cx="102.96" cy="52.72" rx="2.04" ry="1.34"/>
<ellipse class="st10" cx="114.61" cy="51.68" rx="2.04" ry="1.34"/>
<path class="st10" d="M171.82,75.81c0,0-3.64,3.1-4.3,2.44s3.59-4.56,3.59-4.56s-4.62,4.12-5.16,3.58c-0.55-0.54,3.6-5,3.6-5
	s-4.03,4.3-4.52,3.86c-0.49-0.43,3.4-5.61,3.4-5.61s-2.85,4.42-3.88,4.09c-1.04-0.33,2.72-5.66,3.64-6.2
	c0.92-0.54,1.3,1.11,1.3,1.11s0.93,0.35,0.98,1.06c0,0,1.58,1.03,1.36,1.9S173.4,73.8,171.82,75.81z"/>
<g>
	<defs>
		<path id="SVGID_5_" d="M171.82,75.81c0,0-3.64,3.1-4.3,2.44c-0.65-0.65,3.59-4.56,3.59-4.56s-4.62,4.12-5.16,3.58
			c-0.55-0.54,3.6-5,3.6-5s-4.03,4.3-4.52,3.86c-0.49-0.43,3.4-5.61,3.4-5.61s-2.85,4.42-3.88,4.09c-1.04-0.33,2.72-5.66,3.64-6.2
			c0.92-0.54,1.3,1.11,1.3,1.11s0.93,0.35,0.98,1.06c0,0,1.58,1.03,1.36,1.9S173.4,73.8,171.82,75.81z"/>
	</defs>
	<clipPath id="SVGID_6_">
		<use xlink:href="#SVGID_5_"  style="overflow:visible;"/>
	</clipPath>
	<path class="st11" d="M170.86,72.25c-0.15,0.6,0.08,1.08,0.23,1.35c0.07,0.13,0.17,0.26,0.21,0.34c0.06,0.09,0.1,0.16,0.13,0.22
		c0.04,0.09,0.06,0.15,0.04,0.25c-0.02,0.12-0.1,0.37-0.44,0.79l1.57,1.23c0.46-0.58,0.74-1.14,0.83-1.69
		c0.1-0.58-0.03-1.06-0.21-1.44c-0.08-0.18-0.18-0.33-0.25-0.44c-0.08-0.13-0.12-0.19-0.16-0.26c-0.07-0.12,0.02-0.02-0.02,0.14
		L170.86,72.25z M170.47,70.59c-0.55,0.84-0.55,0.84-0.55,0.84c0,0,0,0,0,0c0,0,0,0,0,0c0,0,0,0,0,0c0,0,0,0,0,0c0,0,0,0,0.01,0
		c0.01,0,0.02,0.01,0.04,0.02c0.03,0.02,0.08,0.06,0.14,0.1c0.12,0.09,0.28,0.22,0.42,0.36c0.15,0.15,0.25,0.28,0.3,0.38
		c0.05,0.1,0,0.07,0.03-0.05l1.94,0.49c0.14-0.55-0.03-1.04-0.21-1.38c-0.18-0.34-0.43-0.63-0.65-0.85
		c-0.22-0.22-0.45-0.41-0.62-0.54c-0.08-0.06-0.16-0.12-0.21-0.15c-0.03-0.02-0.05-0.03-0.06-0.04c-0.01-0.01-0.01-0.01-0.02-0.01
		c0,0,0,0-0.01,0c0,0,0,0,0,0c0,0,0,0,0,0c0,0,0,0,0,0C171.02,69.75,171.02,69.75,170.47,70.59z M169.49,69.53
		c-0.36,0.93-0.36,0.93-0.36,0.93c0,0,0,0,0,0c0,0,0,0,0,0c0,0,0,0,0,0c0,0,0,0,0,0c0,0,0,0,0,0c0,0,0,0,0.01,0
		c0.01,0,0.03,0.01,0.05,0.03c0.05,0.03,0.12,0.06,0.18,0.11c0.16,0.12,0.12,0.15,0.11,0.07l1.99-0.15
		c-0.06-0.79-0.59-1.28-0.91-1.52c-0.18-0.13-0.35-0.23-0.47-0.29c-0.06-0.03-0.12-0.06-0.16-0.07c-0.02-0.01-0.04-0.02-0.05-0.02
		c-0.01,0-0.01-0.01-0.02-0.01c0,0,0,0-0.01,0c0,0,0,0,0,0c0,0,0,0,0,0c0,0,0,0,0,0C169.85,68.59,169.85,68.59,169.49,69.53z
		 M168.7,69.27c0.01,0-0.04,0.02-0.12,0.03c-0.09,0.01-0.17-0.01-0.23-0.04c-0.09-0.04-0.08-0.08-0.02,0.02
		c0.05,0.09,0.1,0.2,0.14,0.31c0.02,0.05,0.03,0.1,0.04,0.12c0,0.01,0.01,0.02,0.01,0.03c0,0,0,0,0,0c0,0,0,0,0,0c0,0,0,0,0,0
		c0,0,0,0,0,0c0,0,0,0,0,0c0,0,0,0,0.97-0.22c0.97-0.22,0.97-0.22,0.97-0.22c0,0,0,0,0,0c0,0,0,0,0,0c0,0,0,0,0,0c0,0,0-0.01,0-0.01
		c0-0.01,0-0.01-0.01-0.02c0-0.02-0.01-0.04-0.02-0.07c-0.02-0.06-0.04-0.14-0.07-0.24c-0.06-0.18-0.17-0.45-0.32-0.71
		c-0.15-0.24-0.41-0.59-0.83-0.79c-0.5-0.24-1.05-0.19-1.53,0.1L168.7,69.27z M164.84,73.66c0.19,0.06,0.36,0.2,0.45,0.38
		c0.08,0.15,0.07,0.26,0.07,0.26c0,0,0.01-0.1,0.11-0.35c0.19-0.47,0.55-1.12,1-1.82c0.44-0.69,0.95-1.39,1.39-1.94
		c0.22-0.28,0.42-0.51,0.58-0.68c0.18-0.19,0.26-0.24,0.25-0.24l-1.01-1.73c-0.25,0.14-0.49,0.38-0.68,0.58
		c-0.22,0.23-0.45,0.5-0.7,0.81c-0.49,0.61-1.03,1.37-1.51,2.11c-0.47,0.74-0.92,1.52-1.17,2.16c-0.12,0.31-0.24,0.68-0.25,1.03
		c-0.01,0.18,0.01,0.44,0.15,0.71c0.15,0.29,0.41,0.51,0.73,0.62L164.84,73.66z M168.43,70.52c-0.84-0.54-0.84-0.54-0.84-0.54
		c0,0,0,0,0,0s0,0,0,0c0,0,0,0,0,0c0,0,0,0-0.01,0.01c0,0.01-0.01,0.02-0.02,0.03c-0.02,0.03-0.05,0.08-0.09,0.13
		c-0.08,0.12-0.19,0.28-0.33,0.48c-0.28,0.4-0.65,0.92-1.05,1.43c-0.41,0.52-0.82,0.99-1.17,1.3c-0.18,0.16-0.3,0.24-0.36,0.27
		c-0.09,0.05,0.05-0.06,0.29,0.02l-0.61,1.91c0.5,0.16,0.95-0.01,1.22-0.14c0.29-0.15,0.56-0.35,0.79-0.57
		c0.48-0.43,0.97-1,1.41-1.55c0.44-0.55,0.84-1.12,1.13-1.53c0.15-0.21,0.26-0.39,0.35-0.51c0.04-0.06,0.07-0.11,0.1-0.15
		c0.01-0.02,0.02-0.03,0.03-0.04c0,0,0.01-0.01,0.01-0.01c0,0,0,0,0,0c0,0,0,0,0,0c0,0,0,0,0,0
		C169.27,71.06,169.27,71.06,168.43,70.52z M165.69,75.38c0.3,0.26,0.3,0.58,0.3,0.64c0,0.08-0.02,0.11,0,0.05
		c0.03-0.1,0.11-0.27,0.25-0.53c0.27-0.5,0.69-1.16,1.14-1.83c0.45-0.66,0.91-1.31,1.26-1.8c0.18-0.24,0.32-0.44,0.43-0.58
		c0.05-0.07,0.09-0.12,0.12-0.16c0.01-0.02,0.02-0.03,0.03-0.04c0,0,0.01-0.01,0.01-0.01c0,0,0,0,0,0c0,0,0,0,0,0c0,0,0,0,0,0
		c0,0,0,0-0.8-0.6c-0.8-0.6-0.8-0.6-0.8-0.6c0,0,0,0,0,0c0,0,0,0,0,0c0,0,0,0,0,0c0,0,0,0.01-0.01,0.01
		c-0.01,0.01-0.02,0.03-0.03,0.04c-0.03,0.04-0.07,0.1-0.12,0.17c-0.11,0.14-0.26,0.35-0.44,0.6c-0.36,0.5-0.84,1.17-1.3,1.86
		c-0.46,0.68-0.92,1.4-1.24,1.99c-0.16,0.29-0.3,0.59-0.39,0.86c-0.04,0.13-0.09,0.31-0.1,0.52c0,0.18,0.02,0.59,0.38,0.91
		L165.69,75.38z M169.55,72.27c-0.73-0.68-0.73-0.68-0.73-0.68c0,0,0,0,0,0c0,0,0,0,0,0c0,0,0,0,0,0c0,0,0,0-0.01,0.01
		c-0.01,0.01-0.02,0.02-0.03,0.03c-0.03,0.03-0.07,0.08-0.13,0.13c-0.11,0.11-0.27,0.28-0.46,0.47c-0.38,0.39-0.89,0.91-1.41,1.4
		c-0.53,0.5-1.05,0.97-1.45,1.28c-0.21,0.16-0.34,0.24-0.41,0.27c-0.04,0.02,0.01-0.01,0.1-0.02c0.09-0.01,0.39-0.03,0.67,0.22
		l-1.34,1.49c0.34,0.3,0.73,0.3,0.93,0.28c0.21-0.03,0.39-0.1,0.51-0.16c0.25-0.12,0.51-0.3,0.75-0.49c0.49-0.38,1.07-0.9,1.61-1.42
		c0.55-0.52,1.08-1.06,1.47-1.46c0.2-0.2,0.36-0.37,0.47-0.49c0.06-0.06,0.1-0.11,0.13-0.14c0.02-0.02,0.03-0.03,0.04-0.04
		c0,0,0.01-0.01,0.01-0.01c0,0,0,0,0,0c0,0,0,0,0,0c0,0,0,0,0,0C170.28,72.95,170.28,72.95,169.55,72.27z M166.65,76.56
		c0.22,0.22,0.25,0.47,0.25,0.57c0,0.09-0.02,0.14-0.01,0.1c0.02-0.07,0.09-0.21,0.24-0.44c0.28-0.44,0.71-1.01,1.19-1.59
		c0.47-0.58,0.96-1.14,1.34-1.56c0.19-0.21,0.34-0.38,0.45-0.5c0.05-0.06,0.1-0.11,0.13-0.14c0.01-0.02,0.03-0.03,0.03-0.04
		c0,0,0.01-0.01,0.01-0.01c0,0,0,0,0,0c0,0,0,0,0,0c0,0,0,0,0,0c0,0,0,0-0.73-0.68c-0.73-0.68-0.73-0.68-0.73-0.68c0,0,0,0,0,0
		c0,0,0,0,0,0c0,0,0,0,0,0c0,0-0.01,0.01-0.01,0.01c-0.01,0.01-0.02,0.02-0.04,0.04c-0.03,0.03-0.08,0.08-0.13,0.15
		c-0.11,0.13-0.28,0.3-0.47,0.52c-0.39,0.43-0.9,1.02-1.39,1.62c-0.49,0.6-0.99,1.25-1.33,1.79c-0.17,0.27-0.33,0.56-0.43,0.84
		c-0.05,0.14-0.1,0.33-0.1,0.55c0,0.23,0.06,0.58,0.35,0.86L166.65,76.56z M171.12,73.69c-0.67-0.75-0.67-0.75-0.67-0.75
		c0,0,0,0,0,0c0,0,0,0,0,0c0,0,0,0,0,0c0,0-0.01,0-0.01,0.01c-0.01,0.01-0.02,0.02-0.04,0.03c-0.03,0.03-0.08,0.07-0.14,0.13
		c-0.12,0.11-0.3,0.27-0.52,0.45c-0.44,0.37-1.02,0.86-1.62,1.33c-0.6,0.47-1.19,0.91-1.65,1.19c-0.24,0.14-0.39,0.21-0.46,0.24
		c-0.04,0.01,0-0.01,0.09-0.01c0.09,0,0.34,0.02,0.56,0.24l-1.41,1.42c0.29,0.29,0.64,0.34,0.86,0.34c0.22,0,0.41-0.05,0.55-0.1
		c0.28-0.1,0.58-0.26,0.86-0.42c0.56-0.34,1.23-0.84,1.85-1.32c0.63-0.49,1.23-1,1.68-1.38c0.22-0.19,0.41-0.35,0.54-0.47
		c0.06-0.06,0.12-0.1,0.15-0.13c0.02-0.02,0.03-0.03,0.04-0.04c0,0,0.01-0.01,0.01-0.01c0,0,0,0,0,0c0,0,0,0,0,0c0,0,0,0,0,0
		C171.78,74.44,171.78,74.44,171.12,73.69z M168.23,77.55c0.34,0.34,0.18,0.72,0.21,0.63c0.01-0.03,0.06-0.15,0.2-0.35
		c0.26-0.39,0.69-0.89,1.17-1.41c0.47-0.51,0.97-1.01,1.35-1.38c0.19-0.18,0.35-0.34,0.46-0.44c0.06-0.05,0.1-0.09,0.13-0.12
		c0.01-0.01,0.03-0.02,0.03-0.03c0,0,0.01-0.01,0.01-0.01c0,0,0,0,0,0c0,0,0,0,0,0c0,0,0,0,0,0c0,0,0,0-0.68-0.74
		c-0.68-0.74-0.68-0.74-0.68-0.74c0,0,0,0,0,0c0,0,0,0,0,0c0,0,0,0,0,0c0,0-0.01,0.01-0.01,0.01c-0.01,0.01-0.02,0.02-0.04,0.03
		c-0.03,0.03-0.08,0.07-0.14,0.13c-0.12,0.11-0.28,0.27-0.48,0.46c-0.39,0.38-0.92,0.91-1.42,1.45c-0.5,0.54-1.01,1.14-1.36,1.66
		c-0.17,0.26-0.34,0.55-0.44,0.86c-0.08,0.25-0.22,0.89,0.28,1.39L168.23,77.55z M171.82,75.81c-0.65-0.76-0.65-0.76-0.65-0.76l0,0
		c0,0,0,0,0,0c0,0,0,0,0,0c0,0,0,0-0.01,0.01c-0.01,0.01-0.02,0.01-0.03,0.02c-0.03,0.02-0.06,0.05-0.11,0.09
		c-0.1,0.08-0.24,0.19-0.41,0.33c-0.34,0.27-0.8,0.63-1.27,0.96c-0.48,0.34-0.94,0.62-1.29,0.78c-0.08,0.04-0.15,0.07-0.21,0.08
		c-0.03,0.01-0.05,0.01-0.06,0.02c-0.01,0-0.01,0-0.02,0c0,0,0,0,0,0c0,0,0,0,0,0s0,0,0,0s0,0,0,0c0,0,0,0,0.01,0c0,0,0.01,0,0.02,0
		c0.02,0,0.05,0,0.1,0.01c0.09,0.02,0.23,0.07,0.35,0.19l-1.41,1.41c0.41,0.41,0.94,0.4,1.21,0.37c0.3-0.04,0.6-0.15,0.86-0.27
		c0.52-0.24,1.09-0.6,1.6-0.96c0.52-0.36,1.01-0.74,1.37-1.03c0.18-0.14,0.33-0.27,0.44-0.35c0.05-0.04,0.09-0.08,0.12-0.1
		c0.01-0.01,0.03-0.02,0.03-0.03c0,0,0.01-0.01,0.01-0.01c0,0,0,0,0,0c0,0,0,0,0,0c0,0,0,0,0,0
		C172.47,76.57,172.47,76.57,171.82,75.81z M170.47,70.59l-1,0.08l0.04,0.49l0.41,0.27L170.47,70.59z M169.49,69.53l-0.97,0.22
		l0.12,0.52l0.5,0.19L169.49,69.53z M168.19,68.41l0.5,0.86l0,0L168.19,68.41z M164.54,74.61l0.3-0.95l0,0L164.54,74.61z
		 M168.43,70.52l0.84,0.54l-1.64-1.14L168.43,70.52z M165.03,76.13l0.67-0.74l-0.01-0.01L165.03,76.13z M169.55,72.27l0.73,0.68
		l-1.46-1.36L169.55,72.27z M165.95,77.27l0.7-0.71l0,0L165.95,77.27z M171.12,73.69l0.68,0.74l-1.34-1.48L171.12,73.69z
		 M171.82,75.81l0.65,0.76l0.08-0.07l0.06-0.08L171.82,75.81z"/>
</g>
<path class="st2" d="M107.36,126.74c-1.2,0-2.18,0.98-2.18,2.18c0,1.2,0.98,2.18,2.18,2.18c1.2,0,2.18-0.97,2.18-2.18
	C109.53,127.71,108.55,126.74,107.36,126.74z M107.36,132.9c-2.2,0-3.99-1.79-3.99-3.99c0-2.2,1.79-3.99,3.99-3.99
	c2.2,0,3.99,1.79,3.99,3.99C111.34,131.11,109.55,132.9,107.36,132.9z"/>
<polygon class="st1" points="76.14,33.09 78.42,29.56 76.14,23.94 73.85,29.56 "/>
<polygon class="st1" points="125.54,16.63 123.26,20.17 125.58,25.77 127.84,20.14 "/>
<polygon class="st1" points="142.01,54.12 139.74,57.65 142.06,63.26 144.31,57.63 "/>
<polygon class="st1" points="47.75,38.57 45.48,42.11 47.8,47.72 50.06,42.09 "/>
</svg>
