<?xml version="1.0" encoding="utf-8"?>
<!-- Generator: Adobe Illustrator 24.0.2, SVG Export Plug-In . SVG Version: 6.00 Build 0)  -->
<svg version="1.1" id="Capa_1" xmlns="http://www.w3.org/2000/svg" xmlns:xlink="http://www.w3.org/1999/xlink" x="0px" y="0px"
	 viewBox="0 0 325 74" style="enable-background:new 0 0 325 74;" xml:space="preserve">
<style type="text/css">
	.st0{fill-rule:evenodd;clip-rule:evenodd;fill:#87A2B1;}
	.st1{fill-rule:evenodd;clip-rule:evenodd;fill:#4F667C;}
	.st2{fill-rule:evenodd;clip-rule:evenodd;fill:#992A76;}
	.st3{fill-rule:evenodd;clip-rule:evenodd;fill:#D576AC;}
	.st4{fill-rule:evenodd;clip-rule:evenodd;fill:#D22724;}
	.st5{fill-rule:evenodd;clip-rule:evenodd;fill:#F29325;}
	.st6{fill-rule:evenodd;clip-rule:evenodd;fill:#5567A8;}
	.st7{fill-rule:evenodd;clip-rule:evenodd;fill:#A762A4;}
	.st8{fill-rule:evenodd;clip-rule:evenodd;fill:#ED7226;}
	.st9{fill-rule:evenodd;clip-rule:evenodd;fill:#D35E9E;}
	.st10{fill-rule:evenodd;clip-rule:evenodd;fill:#ACCD6C;}
	.st11{fill-rule:evenodd;clip-rule:evenodd;fill:#38B5AA;}
	.st12{fill-rule:evenodd;clip-rule:evenodd;fill:#CEDF9A;}
</style>
<g>
	<polygon class="st0" points="18.24,22.8 18.24,27.03 2.41,27.03 2.41,5.14 7.74,5.14 7.74,22.8 	"/>
	<path class="st0" d="M26.81,9.97c1.5,0,2.76,0.16,3.76,0.47c1,0.32,1.81,0.77,2.41,1.36c0.61,0.59,1.03,1.31,1.28,2.15
		c0.25,0.84,0.38,1.78,0.38,2.81v9.8c-0.73,0.15-1.74,0.32-3.04,0.52c-1.3,0.2-2.87,0.3-4.72,0.3c-1.16,0-2.21-0.09-3.16-0.28
		c-0.95-0.19-1.76-0.5-2.44-0.93c-0.68-0.43-1.21-0.99-1.57-1.69c-0.36-0.7-0.55-1.55-0.55-2.56c0-0.97,0.21-1.79,0.63-2.47
		c0.42-0.67,0.99-1.21,1.69-1.61c0.71-0.4,1.52-0.69,2.43-0.87c0.91-0.18,1.86-0.27,2.83-0.27c0.66,0,1.25,0.03,1.76,0.08
		c0.51,0.05,0.93,0.12,1.25,0.21v-0.44c0-0.8-0.26-1.44-0.79-1.93c-0.53-0.48-1.44-0.72-2.74-0.72c-0.86,0-1.72,0.06-2.56,0.17
		c-0.84,0.11-1.57,0.28-2.19,0.49l-0.65-3.79c0.3-0.09,0.66-0.17,1.11-0.27c0.44-0.1,0.93-0.18,1.45-0.25
		c0.52-0.08,1.08-0.14,1.66-0.19C25.63,9.99,26.22,9.97,26.81,9.97 M27.22,23.75c0.5,0,0.98-0.01,1.43-0.03
		c0.46-0.02,0.82-0.05,1.1-0.1v-3.57c-0.21-0.04-0.51-0.08-0.92-0.12c-0.41-0.04-0.79-0.07-1.13-0.07c-0.48,0-0.93,0.03-1.35,0.08
		c-0.42,0.05-0.79,0.15-1.11,0.3c-0.32,0.15-0.57,0.35-0.75,0.6c-0.18,0.25-0.28,0.57-0.28,0.95c0,0.74,0.27,1.25,0.8,1.53
		C25.55,23.6,26.28,23.75,27.22,23.75"/>
	<path class="st1" d="M49.95,18.05c0-1.52-0.2-2.59-0.6-3.22c-0.4-0.63-1.09-0.95-2.06-0.95c-0.3,0-0.62,0.02-0.94,0.05
		c-0.32,0.03-0.64,0.07-0.94,0.11v12.83h-6.82V10.82c0.44-0.1,0.94-0.22,1.53-0.33c0.59-0.11,1.2-0.22,1.86-0.32
		c0.66-0.09,1.32-0.17,2.01-0.22c0.69-0.05,1.36-0.08,2.03-0.08c1.3,0,2.37,0.15,3.18,0.46c0.81,0.3,1.49,0.67,2.01,1.09
		c0.73-0.48,1.58-0.87,2.53-1.14c0.95-0.27,1.83-0.41,2.63-0.41c1.44,0,2.63,0.18,3.56,0.55c0.93,0.37,1.67,0.89,2.22,1.56
		c0.55,0.67,0.93,1.48,1.13,2.4c0.21,0.93,0.31,1.96,0.31,3.1v9.38h-4.55v-8.82c0-1.52-0.2-2.59-0.6-3.22
		c-0.4-0.63-1.09-0.95-2.06-0.95c-0.26,0-0.62,0.06-1.09,0.19c-0.47,0.13-0.85,0.28-1.15,0.47c0.15,0.49,0.25,1,0.29,1.53
		c0.04,0.54,0.06,1.11,0.06,1.72v9.07h-4.55V18.05z"/>
	<path class="st1" d="M66.46,18.85c0-1.48,0.24-2.77,0.74-3.87c0.49-1.11,1.13-2.03,1.93-2.77c0.8-0.74,1.71-1.3,2.75-1.68
		c1.04-0.38,2.1-0.57,3.19-0.57c2.55,0,4.57,0.72,6.05,2.16c1.48,1.44,2.22,3.57,2.22,6.37c0,0.27-0.01,0.58-0.03,0.9
		c-0.02,0.32-0.05,0.62-0.07,0.87H71.69c0.12,0.97,0.6,1.74,1.47,2.31c0.86,0.57,2.03,0.86,3.49,0.86c0.93,0,1.85-0.08,2.75-0.24
		c0.9-0.16,1.63-0.35,2.2-0.58l0.68,3.82c-0.27,0.13-0.64,0.25-1.09,0.38c-0.46,0.13-0.96,0.24-1.52,0.33
		c-0.56,0.1-1.15,0.17-1.79,0.24c-0.64,0.06-1.28,0.09-1.91,0.09c-1.62,0-3.03-0.22-4.22-0.66c-1.19-0.44-2.19-1.05-2.97-1.82
		c-0.79-0.77-1.37-1.68-1.74-2.73C66.65,21.21,66.46,20.07,66.46,18.85z M78.42,17.05c-0.02-0.4-0.1-0.79-0.22-1.17
		c-0.13-0.38-0.32-0.72-0.58-1.01c-0.26-0.29-0.59-0.54-0.99-0.72c-0.4-0.19-0.9-0.29-1.49-0.29c-0.57,0-1.06,0.09-1.47,0.27
		c-0.41,0.18-0.75,0.42-1.03,0.71c-0.28,0.3-0.49,0.64-0.63,1.03c-0.15,0.39-0.26,0.78-0.33,1.19H78.42z"/>
	<path class="st1" d="M85.9,10.98c0.87-0.23,1.98-0.45,3.35-0.65c1.37-0.2,2.8-0.3,4.31-0.3c1.53,0,2.8,0.18,3.81,0.55
		c1.01,0.37,1.82,0.89,2.41,1.56c0.59,0.67,1.02,1.48,1.26,2.4c0.25,0.93,0.38,1.96,0.38,3.1v9.38h-5.09v-8.82
		c0-1.52-0.22-2.59-0.65-3.22c-0.43-0.63-1.24-0.95-2.42-0.95c-0.36,0-0.75,0.02-1.16,0.05c-0.41,0.03-0.78,0.07-1.09,0.11v12.83
		H85.9V10.98z"/>
	<path class="st1" d="M104.5,6.27l5.09-0.76v4.9h6.12v3.92h-6.12v5.85c0,0.99,0.19,1.78,0.57,2.37c0.38,0.59,1.13,0.89,2.27,0.89
		c0.55,0,1.11-0.05,1.69-0.14c0.58-0.1,1.11-0.23,1.59-0.4l0.72,3.67c-0.62,0.23-1.3,0.43-2.05,0.6c-0.75,0.17-1.67,0.25-2.77,0.25
		c-1.39,0-2.54-0.17-3.45-0.52c-0.91-0.35-1.64-0.83-2.18-1.45c-0.55-0.62-0.93-1.38-1.14-2.26c-0.22-0.89-0.33-1.87-0.33-2.94V6.27
		z"/>
	<path class="st1" d="M116.94,18.85c0-1.48,0.25-2.77,0.74-3.87c0.49-1.11,1.13-2.03,1.93-2.77c0.8-0.74,1.72-1.3,2.75-1.68
		c1.04-0.38,2.11-0.57,3.2-0.57c2.55,0,4.57,0.72,6.05,2.16c1.48,1.44,2.22,3.57,2.22,6.37c0,0.27-0.01,0.58-0.04,0.9
		c-0.02,0.32-0.04,0.62-0.07,0.87h-11.55c0.11,0.97,0.6,1.74,1.47,2.31c0.87,0.57,2.03,0.86,3.49,0.86c0.93,0,1.85-0.08,2.75-0.24
		c0.9-0.16,1.63-0.35,2.2-0.58l0.69,3.82c-0.27,0.13-0.64,0.25-1.09,0.38c-0.46,0.13-0.96,0.24-1.52,0.33
		c-0.56,0.1-1.16,0.17-1.8,0.24c-0.64,0.06-1.28,0.09-1.91,0.09c-1.62,0-3.02-0.22-4.22-0.66c-1.2-0.44-2.19-1.05-2.98-1.82
		c-0.78-0.77-1.36-1.68-1.74-2.73C117.12,21.21,116.94,20.07,116.94,18.85z M128.9,17.05c-0.02-0.4-0.1-0.79-0.22-1.17
		c-0.12-0.38-0.32-0.72-0.58-1.01c-0.26-0.29-0.59-0.54-0.99-0.72c-0.4-0.19-0.9-0.29-1.49-0.29c-0.57,0-1.06,0.09-1.47,0.27
		c-0.41,0.18-0.75,0.42-1.02,0.71c-0.28,0.3-0.48,0.64-0.63,1.03c-0.15,0.39-0.26,0.78-0.32,1.19H128.9z"/>
	<path class="st0" d="M136.61,18.85c0-1.48,0.24-2.77,0.74-3.87c0.49-1.11,1.13-2.03,1.93-2.77c0.8-0.74,1.71-1.3,2.75-1.68
		c1.04-0.38,2.1-0.57,3.2-0.57c2.55,0,4.57,0.72,6.05,2.16c1.48,1.44,2.22,3.57,2.22,6.37c0,0.27-0.01,0.58-0.03,0.9
		c-0.02,0.32-0.05,0.62-0.07,0.87h-11.55c0.11,0.97,0.6,1.74,1.47,2.31c0.87,0.57,2.03,0.86,3.49,0.86c0.93,0,1.85-0.08,2.75-0.24
		c0.9-0.16,1.63-0.35,2.2-0.58l0.68,3.82c-0.27,0.13-0.64,0.25-1.1,0.38c-0.45,0.13-0.96,0.24-1.52,0.33
		c-0.56,0.1-1.16,0.17-1.79,0.24c-0.64,0.06-1.28,0.09-1.91,0.09c-1.62,0-3.02-0.22-4.22-0.66c-1.2-0.44-2.19-1.05-2.97-1.82
		c-0.79-0.77-1.37-1.68-1.74-2.73C136.8,21.21,136.61,20.07,136.61,18.85z M148.57,17.05c-0.02-0.4-0.1-0.79-0.22-1.17
		c-0.13-0.38-0.32-0.72-0.58-1.01c-0.26-0.29-0.59-0.54-0.99-0.72c-0.4-0.19-0.89-0.29-1.48-0.29c-0.57,0-1.06,0.09-1.47,0.27
		c-0.41,0.18-0.75,0.42-1.02,0.71c-0.27,0.3-0.49,0.64-0.64,1.03c-0.15,0.39-0.25,0.78-0.32,1.19H148.57z"/>
	<path class="st0" d="M161.22,23.65c0.93,0,1.6-0.08,1.98-0.25c0.39-0.17,0.58-0.5,0.58-0.98c0-0.38-0.25-0.71-0.75-0.99
		c-0.5-0.29-1.26-0.61-2.29-0.97c-0.8-0.27-1.52-0.56-2.17-0.85c-0.65-0.29-1.2-0.65-1.66-1.06c-0.45-0.41-0.81-0.9-1.06-1.47
		c-0.25-0.56-0.38-1.25-0.38-2.05c0-1.56,0.63-2.79,1.88-3.7c1.25-0.91,2.97-1.36,5.16-1.36c1.09,0,2.14,0.09,3.14,0.27
		c1,0.18,1.8,0.37,2.4,0.58l-0.89,3.66c-0.59-0.19-1.23-0.36-1.93-0.5c-0.7-0.15-1.47-0.22-2.34-0.22c-1.59,0-2.39,0.41-2.39,1.23
		c0,0.19,0.03,0.36,0.1,0.5c0.07,0.15,0.21,0.29,0.41,0.43c0.21,0.14,0.48,0.28,0.84,0.44c0.35,0.16,0.8,0.33,1.35,0.53
		c1.12,0.38,2.04,0.76,2.77,1.13c0.73,0.37,1.31,0.77,1.73,1.2c0.42,0.43,0.72,0.91,0.89,1.43c0.17,0.53,0.25,1.14,0.25,1.83
		c0,1.64-0.67,2.88-2,3.72c-1.33,0.84-3.22,1.26-5.66,1.26c-1.59,0-2.92-0.12-3.98-0.38c-1.06-0.25-1.79-0.46-2.21-0.63l0.85-3.82
		c0.87,0.31,1.75,0.56,2.66,0.74C159.43,23.56,160.33,23.65,161.22,23.65"/>
	<path class="st1" d="M20.57,50c0-2.82-0.39-4.82-1.18-6c-0.79-1.18-2.13-1.76-4.04-1.76c-0.59,0-1.21,0.03-1.84,0.09
		c-0.64,0.06-1.25,0.13-1.85,0.21v23.87H2.19V36.54c0.81-0.19,1.75-0.4,2.83-0.62c1.08-0.22,2.22-0.41,3.43-0.59
		c1.21-0.18,2.45-0.31,3.72-0.41c1.27-0.1,2.52-0.15,3.75-0.15c2.42,0,4.38,0.29,5.88,0.85c1.51,0.57,2.74,1.24,3.72,2.03
		c1.36-0.9,2.92-1.61,4.67-2.12c1.76-0.51,3.38-0.77,4.87-0.77c2.67,0,4.87,0.34,6.58,1.03c1.72,0.69,3.09,1.66,4.1,2.91
		c1.02,1.25,1.71,2.74,2.1,4.47c0.38,1.73,0.57,3.65,0.57,5.77v17.46h-9.48V50c0-2.82-0.39-4.82-1.18-6
		c-0.78-1.18-2.13-1.76-4.04-1.76c-0.51,0-1.22,0.12-2.13,0.35c-0.91,0.23-1.66,0.53-2.26,0.88c0.3,0.9,0.49,1.85,0.57,2.85
		c0.09,1,0.13,2.07,0.13,3.21v16.87h-9.48V50z"/>
	<path class="st1" d="M66.49,34.66c2.8,0,5.13,0.3,7,0.88c1.86,0.59,3.36,1.43,4.48,2.53c1.12,1.1,1.92,2.43,2.38,4
		c0.47,1.57,0.7,3.31,0.7,5.23v18.23c-1.36,0.28-3.24,0.6-5.66,0.97c-2.42,0.37-5.34,0.56-8.78,0.56c-2.16,0-4.12-0.18-5.88-0.53
		c-1.76-0.35-3.27-0.93-4.55-1.73c-1.27-0.8-2.25-1.85-2.93-3.15c-0.68-1.29-1.02-2.88-1.02-4.76c0-1.8,0.39-3.33,1.18-4.59
		c0.78-1.26,1.83-2.25,3.15-3c1.31-0.75,2.82-1.28,4.52-1.62c1.69-0.33,3.45-0.5,5.28-0.5c1.23,0,2.32,0.05,3.27,0.15
		c0.95,0.1,1.73,0.23,2.32,0.38v-0.82c0-1.49-0.49-2.69-1.46-3.59c-0.98-0.9-2.67-1.35-5.09-1.35c-1.61,0-3.2,0.11-4.77,0.32
		c-1.57,0.21-2.92,0.52-4.07,0.91l-1.21-7.06c0.55-0.16,1.24-0.32,2.07-0.5c0.83-0.18,1.73-0.33,2.7-0.47
		c0.98-0.14,2-0.25,3.08-0.35C64.3,34.71,65.39,34.66,66.49,34.66 M67.25,60.29c0.93,0,1.82-0.02,2.67-0.06
		c0.85-0.04,1.53-0.1,2.04-0.18v-6.64c-0.38-0.08-0.95-0.16-1.72-0.24c-0.76-0.08-1.46-0.12-2.1-0.12c-0.89,0-1.73,0.05-2.51,0.15
		c-0.78,0.1-1.47,0.29-2.07,0.56c-0.6,0.27-1.06,0.65-1.4,1.12c-0.34,0.47-0.51,1.06-0.51,1.76c0,1.37,0.5,2.32,1.5,2.85
		C64.15,60.03,65.51,60.29,67.25,60.29"/>
	<path class="st1" d="M107.26,43.24c-0.85-0.2-1.85-0.4-2.99-0.62c-1.15-0.22-2.37-0.32-3.69-0.32c-0.6,0-1.3,0.05-2.13,0.15
		c-0.83,0.1-1.45,0.2-1.88,0.32v23.64h-9.48V37.13c1.7-0.55,3.7-1.07,6.01-1.56c2.31-0.49,4.89-0.74,7.73-0.74
		c0.51,0,1.12,0.03,1.84,0.09c0.72,0.06,1.44,0.14,2.16,0.24c0.72,0.1,1.44,0.22,2.16,0.35c0.72,0.14,1.33,0.3,1.84,0.5
		L107.26,43.24z"/>
	<path class="st1" d="M122.77,34.66c2.8,0,5.13,0.3,7,0.88c1.86,0.59,3.36,1.43,4.48,2.53c1.12,1.1,1.92,2.43,2.39,4
		c0.47,1.57,0.7,3.31,0.7,5.23v18.23c-1.36,0.28-3.24,0.6-5.66,0.97c-2.41,0.37-5.34,0.56-8.78,0.56c-2.16,0-4.12-0.18-5.88-0.53
		c-1.76-0.35-3.28-0.93-4.55-1.73c-1.27-0.8-2.25-1.85-2.92-3.15c-0.68-1.29-1.02-2.88-1.02-4.76c0-1.8,0.39-3.33,1.18-4.59
		c0.78-1.26,1.83-2.25,3.15-3c1.31-0.75,2.82-1.28,4.52-1.62c1.7-0.33,3.46-0.5,5.28-0.5c1.23,0,2.32,0.05,3.27,0.15
		c0.96,0.1,1.73,0.23,2.32,0.38v-0.82c0-1.49-0.49-2.69-1.46-3.59c-0.97-0.9-2.67-1.35-5.09-1.35c-1.61,0-3.2,0.11-4.77,0.32
		c-1.57,0.21-2.92,0.52-4.07,0.91l-1.21-7.06c0.55-0.16,1.24-0.32,2.07-0.5c0.83-0.18,1.73-0.33,2.7-0.47
		c0.98-0.14,2-0.25,3.08-0.35C120.58,34.71,121.67,34.66,122.77,34.66 M123.54,60.29c0.93,0,1.82-0.02,2.67-0.06
		c0.85-0.04,1.52-0.1,2.04-0.18v-6.64c-0.38-0.08-0.95-0.16-1.72-0.24c-0.76-0.08-1.46-0.12-2.1-0.12c-0.89,0-1.73,0.05-2.51,0.15
		c-0.78,0.1-1.47,0.29-2.07,0.56c-0.59,0.27-1.06,0.65-1.4,1.12c-0.34,0.47-0.51,1.06-0.51,1.76c0,1.37,0.5,2.32,1.49,2.85
		C120.43,60.03,121.8,60.29,123.54,60.29"/>
	<path class="st1" d="M151.7,66.41c-2.17-3.92-4.37-8.51-6.61-13.76c-2.23-5.25-4.35-10.97-6.35-17.17h10.05
		c0.43,1.53,0.92,3.19,1.5,4.97c0.57,1.79,1.17,3.59,1.79,5.41c0.62,1.83,1.24,3.6,1.85,5.32c0.62,1.73,1.23,3.29,1.82,4.7
		c0.55-1.41,1.15-2.98,1.79-4.7c0.64-1.73,1.26-3.5,1.88-5.32c0.62-1.82,1.21-3.62,1.79-5.41c0.58-1.78,1.07-3.44,1.5-4.97h9.8
		c-2,6.19-4.11,11.92-6.35,17.17c-2.23,5.25-4.43,9.84-6.6,13.76H151.7z"/>
	<path class="st1" d="M185.36,26.54c0,1.61-0.56,2.87-1.69,3.79c-1.12,0.92-2.45,1.38-3.97,1.38c-1.53,0-2.85-0.46-3.97-1.38
		c-1.12-0.92-1.69-2.18-1.69-3.79c0-1.61,0.56-2.87,1.69-3.79c1.12-0.92,2.45-1.38,3.97-1.38c1.53,0,2.85,0.46,3.97,1.38
		C184.8,23.67,185.36,24.94,185.36,26.54z M174.99,66.41h9.48V35.48h-9.48V66.41z"/>
	<path class="st1" d="M204.18,67c-2.75-0.04-4.99-0.31-6.71-0.82c-1.72-0.51-3.08-1.22-4.07-2.15c-1-0.92-1.68-2.04-2.04-3.35
		c-0.36-1.31-0.54-2.79-0.54-4.44V22.19l9.48-1.41v33.69c0,0.78,0.06,1.49,0.19,2.12c0.13,0.63,0.37,1.16,0.73,1.59
		c0.36,0.43,0.88,0.78,1.56,1.06c0.68,0.27,1.59,0.45,2.73,0.53L204.18,67z"/>
	<path class="st1" d="M221.74,67c-2.76-0.04-4.99-0.31-6.71-0.82c-1.72-0.51-3.08-1.22-4.07-2.15c-1-0.92-1.68-2.04-2.04-3.35
		c-0.36-1.31-0.54-2.79-0.54-4.44V22.19l9.48-1.41v33.69c0,0.78,0.06,1.49,0.19,2.12c0.13,0.63,0.37,1.16,0.73,1.59
		c0.36,0.43,0.88,0.78,1.56,1.06c0.68,0.27,1.59,0.45,2.73,0.53L221.74,67z"/>
	<path class="st1" d="M277.42,60.12c1.74,0,2.97-0.16,3.69-0.47c0.72-0.31,1.08-0.92,1.08-1.82c0-0.71-0.47-1.32-1.4-1.85
		c-0.93-0.53-2.35-1.13-4.26-1.79c-1.48-0.51-2.83-1.04-4.04-1.59c-1.21-0.55-2.24-1.2-3.09-1.97c-0.85-0.77-1.5-1.68-1.97-2.74
		c-0.46-1.06-0.7-2.33-0.7-3.82c0-2.9,1.16-5.19,3.5-6.88c2.33-1.69,5.53-2.53,9.6-2.53c2.04,0,3.98,0.17,5.85,0.5
		c1.86,0.33,3.35,0.7,4.45,1.09l-1.65,6.82c-1.1-0.35-2.3-0.67-3.59-0.94c-1.29-0.27-2.75-0.41-4.35-0.41
		c-2.97,0-4.45,0.76-4.45,2.29c0,0.35,0.06,0.67,0.19,0.94c0.13,0.27,0.38,0.54,0.77,0.79c0.38,0.26,0.9,0.53,1.56,0.83
		c0.66,0.3,1.49,0.62,2.51,0.98c2.08,0.71,3.79,1.41,5.15,2.1c1.36,0.69,2.43,1.44,3.21,2.24c0.78,0.8,1.34,1.69,1.65,2.67
		c0.32,0.98,0.48,2.11,0.48,3.4c0,3.05-1.24,5.36-3.72,6.92c-2.48,1.56-5.99,2.35-10.53,2.35c-2.97,0-5.44-0.24-7.41-0.71
		c-1.97-0.47-3.34-0.86-4.1-1.17l1.59-7.12c1.61,0.59,3.27,1.05,4.96,1.38C274.09,59.95,275.77,60.12,277.42,60.12"/>
	<path class="st1" d="M307.44,34.66c2.8,0,5.13,0.3,7,0.88c1.86,0.59,3.36,1.43,4.48,2.53c1.12,1.1,1.92,2.43,2.39,4
		c0.46,1.57,0.7,3.31,0.7,5.23v18.23c-1.36,0.28-3.24,0.6-5.66,0.97c-2.41,0.37-5.34,0.56-8.78,0.56c-2.16,0-4.12-0.18-5.88-0.53
		c-1.76-0.35-3.28-0.93-4.55-1.73c-1.27-0.8-2.25-1.85-2.93-3.15c-0.68-1.29-1.02-2.88-1.02-4.76c0-1.8,0.39-3.33,1.18-4.59
		c0.78-1.26,1.83-2.25,3.15-3c1.32-0.75,2.82-1.28,4.52-1.62c1.7-0.33,3.46-0.5,5.28-0.5c1.23,0,2.32,0.05,3.28,0.15
		c0.95,0.1,1.72,0.23,2.32,0.38v-0.82c0-1.49-0.49-2.69-1.47-3.59c-0.97-0.9-2.67-1.35-5.09-1.35c-1.61,0-3.2,0.11-4.77,0.32
		c-1.57,0.21-2.92,0.52-4.07,0.91l-1.21-7.06c0.55-0.16,1.24-0.32,2.07-0.5c0.82-0.18,1.73-0.33,2.7-0.47
		c0.98-0.14,2-0.25,3.09-0.35C305.24,34.71,306.33,34.66,307.44,34.66 M308.2,60.29c0.93,0,1.82-0.02,2.67-0.06
		c0.85-0.04,1.52-0.1,2.04-0.18v-6.64c-0.38-0.08-0.96-0.16-1.72-0.24c-0.76-0.08-1.46-0.12-2.1-0.12c-0.89,0-1.73,0.05-2.51,0.15
		c-0.78,0.1-1.47,0.29-2.07,0.56c-0.6,0.27-1.06,0.65-1.4,1.12c-0.34,0.47-0.51,1.06-0.51,1.76c0,1.37,0.5,2.32,1.5,2.85
		C305.09,60.03,306.46,60.29,308.2,60.29"/>
	<path class="st2" d="M239.23,4.11c-0.51,0-1.01,0.06-1.49,0.18c1.8,1.85,3.58,4.88,5.1,9.43c1.34-0.99,2.21-2.51,2.21-4.22
		C245.05,6.52,242.44,4.11,239.23,4.11"/>
	<path class="st3" d="M237.74,4.28c-2.5,0.61-4.34,2.71-4.34,5.21c0,2.97,2.61,5.39,5.83,5.39c1.37,0,2.62-0.43,3.62-1.16
		C241.32,9.16,239.55,6.14,237.74,4.28"/>
	<path class="st4" d="M270.23,14.46c-3.6-0.14-6.65,2.44-6.81,5.78c-0.09,1.88,0.77,3.61,2.18,4.77c4.34-4.08,7.89-5.98,10.51-6.53
		C275.25,16.22,272.97,14.56,270.23,14.46"/>
	<path class="st5" d="M276.11,18.47c-2.62,0.55-6.17,2.45-10.51,6.53c1.09,0.9,2.5,1.46,4.07,1.53c3.61,0.14,6.66-2.45,6.81-5.79
		C276.52,19.95,276.39,19.18,276.11,18.47"/>
	<path class="st6" d="M251.63,13.58c1.5,1.48,1.42,2.83,0.71,3.95c0.12,0.04,0.24,0.07,0.37,0.12c0.87,0.33,1.72,0.73,2.55,1.16
		c4.56-2.67,3.54-7.13,3.27-8.04c-0.5-1.71-1.57-3.24-3.53-3.45c-2.2-0.24-4.2,1.21-4.46,3.25
		C250.38,11.72,250.83,12.8,251.63,13.58L251.63,13.58z"/>
	<path class="st1" d="M262.17,30.57c-0.96-2.15-2.42-4.13-4.39-5.93c-1.94-1.78-4.07-3.1-6.4-3.97c-2.2-0.82-4.43-1.22-6.71-1.22
		c-0.14,0-0.29,0-0.43,0c-2.43,0.06-4.85,0.59-7.28,1.6c-0.05,0.02-0.1,0.05-0.14,0.07l24.88,22.84c0.02-0.04,0.05-0.08,0.07-0.13
		c1.09-2.23,1.67-4.46,1.73-6.69C263.57,34.9,263.12,32.72,262.17,30.57"/>
	<path class="st1" d="M261.45,42.79h-34.81c-0.91,2.86-1.37,5.07-1.37,7.81c0,2.79,3.07,18.94,18.93,18.94
		c15.85,0,18.85-16.22,18.85-19.02c0-2.74-0.45-4.87-1.34-7.73 M234.16,58.71h19.92c0,0-9.71,14.32-19.25,0"/>
	<path class="st7" d="M264.37,9.84c-0.24-1.66-0.52-2.04-1.3-2.5c-1.02-0.6-2.38-0.32-3.03,0.63c-0.65,0.95-0.34,2.2,0.68,2.8
		c2.08,1.15-0.14,3.83-0.17,3.86C263.23,13.48,264.61,11.5,264.37,9.84"/>
	<path class="st8" d="M277.91,18.31c-0.54-0.02-1.14,0.03-1.8,0.17c0.27,0.71,0.41,1.48,0.37,2.27c-0.15,3.34-3.2,5.93-6.81,5.79
		c-1.57-0.06-2.98-0.63-4.07-1.53c-0.08,0.08-0.16,0.15-0.24,0.23c-0.5,0.47-0.98,0.94-1.45,1.4c0.57,0.88,1.09,1.77,1.51,2.7
		c0.25,0.56,0.46,1.13,0.65,1.69c2.49-1.51,5.29-2.8,8.35-3.56C282.59,25.45,283.08,18.51,277.91,18.31"/>
	<path class="st9" d="M233.77,18.94l1.44-0.71c0.09-0.05,0.19-0.09,0.31-0.15c2.66-1.11,5.39-1.72,8.09-1.85
		c-0.01-0.04-0.02-0.08-0.03-0.13c-0.23-0.84-0.48-1.64-0.73-2.39c-1,0.73-2.25,1.16-3.62,1.16c-3.22,0-5.83-2.41-5.83-5.39
		c0-2.5,1.84-4.6,4.34-5.21c-1.67-1.72-3.37-2.43-4.91-2.43c-5.76,0-9.38,9.99-1.6,15.11C232.15,17.56,232.98,18.22,233.77,18.94"/>
	<path class="st10" d="M233.64,27.69c-3.37,0-6.1,2.52-6.1,5.64c0,1.42,0.57,2.73,1.51,3.72c1.98-2.41,5.1-3.96,8.62-3.96
		c0.7,0,1.39,0.06,2.06,0.18C239.7,30.18,236.98,27.69,233.64,27.69"/>
	<path class="st5" d="M254.48,41.9l-11.74-10.78c-2.73,2.12-4.47,5.29-4.47,8.84c0,0.66,0.08,1.31,0.2,1.94H254.48z"/>
	<path class="st11" d="M248.4,41.9c-0.42-4.45-4.69-7.12-4.69-7.12c-1.18-0.73-2.52-1.26-3.97-1.52v0.07c0,3.11-2.73,5.64-6.09,5.64
		c-1.83,0-3.47-0.74-4.59-1.92c-1.13,1.38-1.85,3.05-2.08,4.86H248.4z"/>
	<path class="st12" d="M237.67,33.08c-3.52,0-6.64,1.55-8.62,3.96c1.12,1.18,2.76,1.92,4.59,1.92c3.37,0,6.1-2.52,6.1-5.64v-0.07
		C239.07,33.14,238.38,33.08,237.67,33.08"/>
	<path class="st4" d="M240.48,33.43c0.64-0.86,1.4-1.64,2.26-2.31l-3.25-2.98c-0.7,0.19-1.34,0.51-1.9,0.92
		c1.29,1.02,2.13,2.51,2.15,4.2C239.99,33.31,240.23,33.37,240.48,33.43"/>
</g>
</svg>
