<?xml version="1.0" encoding="utf-8"?>
<!-- Generator: Adobe Illustrator 24.0.2, SVG Export Plug-In . SVG Version: 6.00 Build 0)  -->
<svg version="1.1" id="Capa_1" xmlns="http://www.w3.org/2000/svg" xmlns:xlink="http://www.w3.org/1999/xlink" x="0px" y="0px"
	 viewBox="0 0 40.5 33" style="enable-background:new 0 0 40.5 33;" xml:space="preserve">
<style type="text/css">
	.st0{fill:#CACACA;}
</style>
<path class="st0" d="M14.89,27.92c3.78-4.1,3.39-9.36,3.38-9.42v-6v-10c0-1.1-0.89-2-2-2h-12c-2.21,0-4,1.79-4,4v14
	c0,1.1,0.89,2,2,2h2h4.16c-0.04,0.8-0.25,1.82-0.86,2.79c-1.02,1.6-2.93,2.7-5.69,3.25l-1.61,0.32v5.64h2
	C7.84,32.5,12.08,30.96,14.89,27.92z M36.9,27.92c3.77-4.1,3.39-9.36,3.38-9.42v-6v-10c0-1.1-0.89-2-2-2h-12c-2.21,0-4,1.79-4,4v14
	c0,1.1,0.89,2,2,2h2h4.16c-0.04,0.8-0.25,1.82-0.86,2.79c-1.02,1.6-2.93,2.7-5.69,3.25l-1.61,0.32v5.64h2
	C29.85,32.5,34.1,30.96,36.9,27.92z"/>
</svg>
