<?xml version="1.0" encoding="utf-8"?>
<!-- Generator: Adobe Illustrator 24.0.2, SVG Export Plug-In . SVG Version: 6.00 Build 0)  -->
<svg version="1.1" id="Capa_1" xmlns="http://www.w3.org/2000/svg" xmlns:xlink="http://www.w3.org/1999/xlink" x="0px" y="0px"
	 viewBox="0 0 203 34" style="enable-background:new 0 0 203 34;" xml:space="preserve">
<style type="text/css">
	.st0{fill:#FFFFFF;}
</style>
<g>
	<path class="st0" d="M95.92,11.52c1.99-0.09,3.84,0.99,4.74,2.77l3.36-1.98c-1.6-2.91-4.68-4.7-8-4.64c-0.14,0-0.29,0-0.43,0
		c-5.09,0.09-9.14,4.29-9.05,9.38c0,0.1,0,0.21,0,0.31c0.06,5.12,4.26,9.23,9.38,9.17c3.36,0.1,6.49-1.69,8.1-4.64l-3.36-1.88
		c-0.9,1.77-2.75,2.85-4.74,2.77c-0.11,0-0.21,0-0.32,0c-2.99-0.11-5.33-2.63-5.22-5.63c0-0.11,0-0.21,0-0.32
		C90.45,13.84,92.93,11.46,95.92,11.52z"/>
	<path class="st0" d="M113.7,7.47c-5.24,0.05-9.44,4.34-9.38,9.58c0,0.06,0,0.13,0,0.19c0.08,5.16,4.32,9.27,9.48,9.19
		c0.03,0,0.07,0,0.1,0c5.24-0.05,9.44-4.34,9.38-9.58C123.23,11.62,118.94,7.42,113.7,7.47z M119.33,17.42
		c-0.1,3.01-2.62,5.36-5.63,5.26c-0.08,0-0.17,0-0.25,0c-3.04-0.07-5.45-2.59-5.38-5.63c0-3.11,2.52-5.63,5.63-5.63
		c3.11,0,5.63,2.52,5.63,5.63C119.34,17.17,119.34,17.3,119.33,17.42z"/>
	<path class="st0" d="M134.64,7.57c-2.21-0.13-4.31,0.92-5.53,2.77c0-1.38-0.79-2.27-3.85-2.27v17.88h3.85v-9.58
		c0-3.65,1.98-5.14,4.54-5.14c2.47,0,4.05,1.38,4.05,4.15v10.57h3.85V14.98C141.55,10.33,138.69,7.67,134.64,7.57z"/>
	<path class="st0" d="M149.55,3.12l-1.19,0.3c-1.88,0.59-2.77,1.19-2.77,3.65v0.99h-2.86v3.65h2.86v8.59c0,4.74,2.37,6.32,8.3,5.63
		v-3.46c-2.96,0.2-4.44,0.2-4.44-2.07v-8.49H154V8.16h-4.44V3.12z"/>
	<path class="st0" d="M191.92,7.47c-5.24,0.05-9.44,4.34-9.38,9.58c0,0.06,0,0.13,0,0.19c0.08,5.16,4.32,9.27,9.48,9.19
		c0.03,0,0.07,0,0.1,0c5.24-0.05,9.44-4.34,9.38-9.58C201.44,11.62,197.16,7.42,191.92,7.47z M192.03,22.67
		c-3.11,0-5.63-2.51-5.63-5.62c0,0,0-0.01,0-0.01c0-3.11,2.53-5.63,5.63-5.62s5.63,2.53,5.62,5.64
		C197.65,20.15,195.13,22.67,192.03,22.67z"/>
	<path class="st0" d="M177.21,8.75c-0.38,0.55-0.56,1.21-0.49,1.88c-1.4-2.05-3.74-3.24-6.22-3.16c-5.02,0.05-9.04,4.16-8.99,9.18
		c0,0.03,0,0.07,0,0.1c-0.11,5.02,3.87,9.17,8.89,9.28c0.03,0,0.07,0,0.1,0c2.48,0.08,4.83-1.11,6.22-3.16v2.27
		c0,3.16-1.98,4.94-5.33,4.94c-3.16,0-4.44-1.19-5.23-2.77l-2.77,2.77c1.68,2.27,4.44,3.46,8,3.46c4.74,0,9.18-2.67,9.18-8.49V8.06
		h-1.19C178.59,8,177.81,8.24,177.21,8.75z M171.38,22.48c-0.1,0-0.2,0-0.3,0c-3.05,0.11-5.62-2.28-5.73-5.33c0-0.1,0-0.2,0-0.3
		c0-3.16,2.56-5.73,5.73-5.73c3.16,0,5.73,2.56,5.73,5.73C176.87,19.91,174.44,22.43,171.38,22.48z"/>
	<circle class="st0" cx="157.65" cy="2.93" r="2.47"/>
	<rect x="155.68" y="8.06" class="st0" width="3.85" height="17.97"/>
	<path class="st0" d="M77.36,8.06c-2.23-0.12-4.34,0.98-5.53,2.86c-1.05-1.83-3.03-2.94-5.14-2.86c-2.07-0.1-4.03,0.92-5.14,2.67
		c0-1.58-1.19-2.17-3.85-2.17v17.97h3.85V16.46c0-3.26,1.78-4.74,3.95-4.74c2.07,0,3.36,1.48,3.36,3.95v10.86h3.85V16.46
		c0-3.26,1.68-4.74,3.95-4.74c2.07,0,3.46,1.48,3.46,3.95v10.86h3.85V15.37C83.97,10.93,81.21,8.06,77.36,8.06z"/>
	<path class="st0" d="M50.99,21.79c-0.1-0.2-0.1-0.4-0.2-0.59c-0.1-0.2-0.1-0.4-0.2-0.59c-0.01-0.24-0.07-0.48-0.2-0.69
		c-0.02-0.24-0.09-0.48-0.2-0.69c-0.14-0.47-0.3-0.93-0.49-1.38c-0.08-0.24-0.18-0.47-0.3-0.69c-0.12-0.44-0.29-0.87-0.49-1.28
		c-0.4-0.79-0.69-1.68-1.09-2.47c-0.1-0.3-0.2-0.49-0.3-0.79c-0.3-0.59-0.49-1.19-0.79-1.68c-0.1-0.2-0.2-0.3-0.3-0.49
		c-0.05,0-0.1-0.04-0.1-0.1l-0.3-0.59c-0.1-0.1-0.1-0.2-0.2-0.3c-0.1-0.2-0.1-0.3-0.2-0.4c-0.3-0.49-0.49-0.89-0.79-1.38
		c-0.05,0-0.1-0.04-0.1-0.1c-0.1-0.1-0.2-0.3-0.3-0.4l-0.1-0.1c-0.1-0.1-0.1-0.2-0.2-0.3c-0.1-0.1-0.1-0.2-0.2-0.3
		c0-0.05-0.04-0.1-0.1-0.1c-0.1,0-0.1-0.1-0.2-0.2c-0.08-0.18-0.18-0.34-0.3-0.49c-0.07-0.15-0.17-0.28-0.3-0.4
		c0-0.1-0.1-0.1-0.1-0.2c-0.31-0.38-0.67-0.72-1.09-0.99c-1.39-0.87-3.18-0.75-4.44,0.3c-0.18,0.12-0.32,0.29-0.4,0.49l-0.3,0.3
		l-0.3,0.3c-0.99,0.69-2.27,1.88-3.75,3.06c0,0.1-0.1,0.1-0.2,0.2c-0.15,0.07-0.28,0.17-0.4,0.3c-0.1,0.1-0.3,0.2-0.4,0.3
		c-0.2,0.1-0.3,0.3-0.49,0.4l-0.1,0.1c3.85,3.85,12.15,11.95,15.41,16c0.52,0.62,1.27,1.01,2.07,1.09h0.1
		c0.75-0.01,1.47-0.33,1.98-0.89c0.52-0.64,0.77-1.45,0.69-2.27v-0.2v-0.2l-0.3-1.19C51.09,22.09,50.99,21.89,50.99,21.79z"/>
	<path class="st0" d="M48.42,28.31c-1.25-0.06-2.41-0.68-3.16-1.68C42.2,22.78,33.9,14.68,28.67,9.54
		c-2.86-2.77-4.84-4.64-5.33-5.04c-0.78-0.64-1.76-0.99-2.77-0.99c-1.05-0.01-2.05,0.42-2.77,1.19c-3.95,4.74-7.11,8.79-9.58,12.15
		c-1.78,2.47-3.16,4.54-4.15,6.22c-1.98,3.26-2.67,5.14-2.57,5.73c0.18,0.89,0.97,1.51,1.88,1.48c0.01,0,0.02,0,0.03,0
		c0.02,0,0.05,0,0.07,0c0.31,0,0.61-0.07,0.89-0.2c0,0,12.86-7.36,20.18-7.41c0.17,0.01,0.33,0.02,0.5,0.03
		c0.39,0.02,0.78,0.05,1.16,0.09c0.28,0.03,0.55,0.07,0.82,0.11c0.27,0.04,0.54,0.09,0.81,0.14c0.81,0.16,1.61,0.35,2.4,0.61h0.1
		c1.52,0.42,3,0.95,4.44,1.58c0,0.05,0.04,0.1,0.1,0.1c1.48,0.69,2.77,1.28,3.85,1.88c1.98,1.09,3.36,1.98,3.85,2.27
		c0.91,0.6,1.97,0.91,3.06,0.89c1.52,0,2.98-0.6,4.05-1.68c0.31-0.25,0.57-0.55,0.79-0.89c-0.57,0.23-1.17,0.4-1.78,0.49H48.42z"/>
</g>
</svg>
