<?xml version="1.0" encoding="utf-8"?>
<!-- Generator: Adobe Illustrator 24.0.2, SVG Export Plug-In . SVG Version: 6.00 Build 0)  -->
<svg version="1.1" id="Capa_1" xmlns="http://www.w3.org/2000/svg" xmlns:xlink="http://www.w3.org/1999/xlink" x="0px" y="0px"
	 viewBox="0 0 1125 610" style="enable-background:new 0 0 1125 610;" xml:space="preserve">
<style type="text/css">
	.st0{fill:#EEF0F1;}
	.st1{fill:#F1F1F1;}
	.st2{fill:#E4E4E4;}
	.st3{fill:#CACACA;}
	.st4{fill:#414141;}
	.st5{fill:#FFFFFF;}
	.st6{fill:#696969;}
	.st7{fill:#7D7D7D;}
	.st8{fill:#979797;}
	.st9{fill:#2D2D2D;}
</style>
<rect x="1.86" y="130.4" class="st0" width="1123.14" height="479.15"/>
<path class="st1" d="M275.38,116.68C129.74,138.26,57.67,260.97,48.41,347.55c-11.31,105.69,37.75,161.55,129.3,154.3
	c99.26-7.88,213.43-18.61,336.61,0c123.22,18.61,215.4,35.66,260.65-77.61c45.25-113.27-14.25-329.05-180.96-366.98
	C471.21,29.31,427.05,94.22,275.38,116.68z"/>
<path class="st2" d="M613.8,535.58c0,0,1.09-77.11-24.43-99.99c-25.52-22.88-94.1-125.17-38.63-150.36
	c55.47-25.19,72.15,67.22,107.72,98.52s5.45,148.98,5.45,148.98L613.8,535.58z"/>
<path class="st3" d="M648.65,550.96l-2.51-0.25c0.08-0.92,9.26-91.94-7.29-132.8c-7.67-18.9-22.92-37.05-39.13-56.28
	c-19.52-23.17-39.68-47.1-50.19-76.02l2.35-0.84c10.35,28.5,30.38,52.26,49.73,75.26c16.34,19.36,31.72,37.67,39.55,56.95
	C658,458.39,648.78,550.08,648.65,550.96z"/>
<path class="st3" d="M592.76,354.71c-2.26-6.2-2.14-19.49-2.01-33.57c0.13-13.54,0.25-28.87-2.39-32.69l2.05-1.42
	c3.06,4.48,2.93,18.9,2.81,34.15c-0.13,13.24-0.21,26.9,1.89,32.69L592.76,354.71z"/>
<path class="st3" d="M604.87,367.74c-1.97-2.35-14.25-7.46-27.19-12.87c-26.35-10.94-46.68-19.91-48.73-26.74l2.39-0.71
	c1.89,6.29,28.16,17.18,47.3,25.14c16.01,6.66,25.94,10.85,28.16,13.58L604.87,367.74z"/>
<path class="st3" d="M631.56,403.03c-1.55-3.02-2.6-14.25-4.11-32.44c-1.3-15.71-2.77-33.48-4.73-37l2.18-1.26
	c2.26,3.98,3.6,20.53,5.07,38.05c1.17,14.12,2.35,28.71,3.81,31.47L631.56,403.03z"/>
<path class="st3" d="M643.12,431.4c-4.23-6.75-25.06-12.03-43.45-16.68c-18.85-4.78-36.66-9.26-40.98-15.63l2.05-1.42
	c3.81,5.57,22,10.18,39.55,14.63c20.66,5.24,40.18,10.18,44.96,17.77L643.12,431.4z"/>
<path class="st3" d="M647.61,495.73c-1.8-14.75-20.24-23.17-33.69-29.33c-4.73-2.14-8.8-4.02-11.15-5.78l1.51-2.01
	c2.14,1.59,6.12,3.39,10.68,5.49c13.2,6.03,33.14,15.17,35.11,31.3L647.61,495.73z"/>
<path class="st3" d="M650.71,471.04l-2.51-0.17c0.38-5.45,5.4-17.14,10.73-29.54c5.66-13.24,12.11-28.24,11.65-33.53l2.51-0.21
	c0.54,5.87-5.49,19.91-11.82,34.7C656.24,453.99,651.08,466.02,650.71,471.04z"/>
<path class="st2" d="M637.17,532.02c29.83-42.12-4.48-181.75,63.48-238.36c67.92-56.62,115.81-23.97,72.32,56.32
	c-43.49,80.29-58.28,174.67-81.87,183.38C667.51,542.08,637.17,532.02,637.17,532.02z"/>
<path class="st3" d="M661.31,551.38l-2.47-0.46c0.13-0.67,12.78-67.64,39.85-155.85c17.77-57.91,39.64-85.2,54.09-103.26
	c8.04-10.06,13.87-17.35,16.09-25.73l2.43,0.63c-2.35,8.88-8.3,16.34-16.55,26.65c-14.33,17.89-35.99,44.97-53.63,102.42
	C674.09,483.91,661.43,550.75,661.31,551.38z"/>
<path class="st3" d="M713.6,361.08l-1.97-1.59c7.96-9.93,24.51-17.64,40.56-25.14c16.34-7.63,31.8-14.83,34.52-22.92l2.39,0.8
	c-3.1,9.09-18.98,16.51-35.82,24.39C737.48,344.03,721.18,351.65,713.6,361.08z"/>
<path class="st3" d="M701.11,395.82l-2.39-0.71c1.8-5.91,1.55-23.55,1.3-42.2c-0.46-34.82-0.34-59.88,5.53-64.79l1.63,1.93
	c-5.4,4.53-4.99,36.88-4.65,62.82C702.79,372.52,703.04,389.49,701.11,395.82z"/>
<path class="st3" d="M684.39,453.95l-2.43-0.67c2.89-10.43,18.94-21.54,35.95-33.23c14.96-10.31,30.46-21,34.69-30.34l2.3,1.05
	c-4.48,9.97-20.28,20.87-35.53,31.39C703.46,433.04,687.03,444.39,684.39,453.95z"/>
<path class="st3" d="M679.2,473.68l-2.43-0.63c2.64-10.52-5.7-43.04-11.77-66.76c-4.48-17.43-7-27.49-6.45-30.51l2.47,0.42
	c-0.46,2.64,2.89,15.67,6.41,29.46C673.92,431.02,681.96,462.54,679.2,473.68z"/>
<path class="st3" d="M667.89,520.83l-2.47-0.54c1.3-5.95,12.44-11.9,25.35-18.77c12.02-6.41,25.64-13.66,27.9-20.16l2.39,0.84
	c-2.6,7.38-16.09,14.58-29.12,21.54C680.67,509.77,668.93,516.01,667.89,520.83z"/>
<path class="st2" d="M256.78,394.06c0,0-0.08-41.82-1.01-76.52c-0.92-34.7,31.93-72.88,39.64-92.66
	c7.71-19.82-0.38-50.12,27.44-63.53c0,0-16.34,29.17-1.55,44.3c14.79,15.13-4.15,67.18-7.08,89.51
	C311.29,317.41,294.44,376.54,256.78,394.06z"/>
<path class="st2" d="M217.68,462.91c0,0-20.11-93.45-51.7-133.14s-29.45-33.65-75.59-43.37c-46.09-9.72-43.57,24.1-43.57,24.1
	s25.81-14.67,40.68,4.69c14.92,19.36,19.19,44.88,48.39,84.99C165.1,440.28,217.68,462.91,217.68,462.91z"/>
<path class="st2" d="M119.39,179.37c9.26,33.86,79.48,51.71,95.61,87.71c16.13,36,9.18,123.08,9.18,123.08s-43.87-37.84-46.84-71.28
	s-25.81-46.73-43.49-80.75C116.21,204.06,119.39,179.37,119.39,179.37z"/>
<path class="st2" d="M243.24,548.15l-2.51,0.17c-0.04-0.96-6.54-96.51-17.77-157.9l-0.88-4.82c-10.94-59.88-17.51-96.05-50.7-128.11
	c-34.11-33.02-52.96-77.15-53.13-77.61l2.3-0.96c0.17,0.42,18.85,44.13,52.58,76.77c33.73,32.6,40.39,69.06,51.41,129.45l0.88,4.82
	C236.71,451.47,243.2,547.19,243.24,548.15z"/>
<path class="st3" d="M238.26,516.34c-2.93-30.63-29.96-66.46-58.53-104.39c-17.01-22.59-34.61-45.89-49.36-70.57l2.14-1.3
	c14.66,24.56,32.22,47.82,49.19,70.32c28.83,38.22,56.02,74.34,59.04,105.69L238.26,516.34z"/>
<path class="st3" d="M232.98,461.87c-3.27-26.11,8.55-45.34,19.94-63.91c7.25-11.82,14.75-24.01,18.27-37.88
	c8.97-35.33,15.75-102.13,15.8-102.8l2.51,0.25c-0.08,0.67-6.87,67.64-15.88,103.13c-3.6,14.25-11.23,26.61-18.56,38.6
	c-11.69,19.07-22.75,37.05-19.61,62.27L232.98,461.87z"/>
<path class="st4" d="M361.9,416.23c0,0-9.26,87.17-17.22,97.22c-7.92,10.06-34.73,15.09-34.73,28.5s222.9,11.73,224.58,0
	s-21.2-20.12-29.87-28.5c-8.67-8.38-18.73-97.22-18.73-97.22H361.9z"/>
<path class="st3" d="M344.76,531.47l-0.13-2.51c0.96-0.04,95.57-4.99,160.05,0l-0.21,2.51
	C440.17,526.53,345.73,531.43,344.76,531.47z"/>
<path class="st4" d="M178.76,104.78c-16.09,6.45-18.6,317.48-0.17,334.25c18.44,16.76,475.97,13.41,482.67,0
	c6.7-13.41,21.03-320.12-5.2-336.89C629.84,85.38,217.89,89.02,178.76,104.78z"/>
<path class="st2" d="M193.84,122.68c-12.65,9.05-8.38,252.65,0,262.71c8.38,10.06,435.75,10.06,447.48,0
	c11.73-10.06,8.38-252.19,0-262.71C632.94,112.16,207.25,113.08,193.84,122.68z"/>
<path class="st5" d="M472.05,392.93c0,0,0-32.69,5.87-44.42c5.87-11.73,28.49-50.29,37.71-90.52
	c9.22-40.23-1.68-140.81-14.25-140.81c-12.57,0-11.73,74.59-11.73,74.59s0.84-93.87-14.25-93.87c-15.08,0-15.92,88-15.92,88
	s0.84-104.77-16.76-104.77c-17.6,0-16.76,103.93-16.76,103.93s-0.71-85.49-17.14-85.49c-16.42,0-13.03,130.75-17.22,169.3
	c-4.19,38.55,17.22,124.04,17.22,124.04H472.05z"/>
<path class="st1" d="M509.68,278.94c2.3-6.83,4.32-13.87,5.95-20.95c2.05-8.97,3.1-20.91,3.35-34.07
	c-39.26,6.41-101.69,30.84-127.04,41.15c-0.13,1.34-0.25,2.6-0.38,3.77c-0.17,1.55-0.29,3.23-0.38,4.9
	C413.65,281.71,467.44,296.88,509.68,278.94z"/>
<path class="st3" d="M245.67,27.51c-6.75,10.81-8.25,221.27,0,235.39c8.25,14.12,327.15,4.82,341.27-13.49
	c14.12-18.31,5.87-194.87,0-217.24C581.07,9.86,257.45,8.69,245.67,27.51z"/>
<path class="st6" d="M417.42,206.49c-32.09,0-166.97-170.94-172.71-178.23l1.97-1.55c1.38,1.76,139.82,177.26,170.74,177.26
	S584.63,33.16,585.97,31.45l1.97,1.55C582.29,40.08,449.51,206.49,417.42,206.49z"/>
<path class="st6" d="M246.59,263.77l-1.84-1.72c0.63-0.67,63.98-69.48,113.67-103.55l1.42,2.1
	C310.41,194.5,247.22,263.1,246.59,263.77z"/>
<path class="st6" d="M586.02,250.32c-54.59-58.63-102.99-96.64-103.45-97.01l1.55-1.97c0.5,0.38,49.02,38.51,103.74,97.31
	L586.02,250.32z"/>
<path class="st5" d="M390.27,177.95c-16.76,0-4.53,37.3-9.55,54.9s-20.11,33.53-15.92,62.86c4.19,29.33,27.65,48.61,32.68,62.02
	c5.03,13.41,0,35.2,0,35.2h56.14c0,0-3.35-20.95-5.03-64.54c-1.68-43.58-35.07-51.96-39.76-58.67c-4.65-6.71,8.76-24.31,7.92-46.94
	C415.91,200.16,399.02,177.95,390.27,177.95z"/>
<path class="st3" d="M420.39,411.37c-5.45,0-8.97,5.57-9.18,10.98c-0.17,4.65,2.14,9.85,9.26,10.39c0.34,0.04,0.71,0.04,1.05,0.04
	c4.27,0,8.09-2.22,10.22-5.95c1.97-3.39,2.14-7.33,0.42-10.31C430.24,413.21,426.05,411.37,420.39,411.37z M421.52,435.3
	c-0.42,0-0.84,0-1.26-0.04c-8.88-0.71-11.77-7.46-11.56-12.99c0.25-6.58,4.69-13.37,11.69-13.37c6.62,0,11.56,2.3,13.99,6.45
	c2.14,3.73,1.97,8.63-0.42,12.82C431.33,432.62,426.68,435.3,421.52,435.3z"/>
<path class="st7" d="M217.06,21.05c43.62,7.25,48.77,36.58,47.93,73.96c-0.8,37.38,21.95,61.77,37.37,61.77c0,0-20.32,7.33-35.74,0
	c-15.46-7.33-30.88,12.99-70.68,3.27c-39.8-9.76-75.59-38.68-58.49-88.84C154.5,21.05,187.81,16.15,217.06,21.05z"/>
<path class="st5" d="M196.94,79.93c0,0,15.08-30.51,30.17-15.13c15.08,15.38-22.12,42.41-29.16,59.59c0,0-39.22-37.76-23.13-59.59
	C190.91,42.97,196.94,79.93,196.94,79.93z"/>
<path class="st6" d="M511.52,189.6c0,0,15.08-30.51,30.17-15.13c15.08,15.38-22.12,42.41-29.16,59.59c0,0-39.22-37.76-23.13-59.59
	S511.52,189.6,511.52,189.6z"/>
<path class="st5" d="M531.51,131.85c42.86,7.17,47.93,35.96,47.14,72.71s21.58,60.72,36.75,60.72c0,0-19.99,7.21-35.15,0
	c-15.17-7.21-30.38,12.78-69.51,3.18c-39.13-9.6-74.29-38.05-57.53-87.33C470,131.85,502.76,127.08,531.51,131.85z"/>
<path class="st7" d="M511.52,189.6c0,0,15.08-30.51,30.17-15.13c15.08,15.38-22.12,42.41-29.16,59.59c0,0-39.22-37.76-23.13-59.59
	S511.52,189.6,511.52,189.6z"/>
<path class="st8" d="M384.16,506.45c-0.27,2.63-0.68,5.2-1.26,7.7c-7.38,31.86-40.46,53.95-99.49,57.97
	c-119.19,8.1-184.86,0.9-208.24-55.77c-5.29-12.81-7.34-29.36-7.05-47.44c0.97-62,29.29-142.16,48.43-152.26
	c24.74-13.04,42.28-6.3,42.28-6.3c40.03,8.54,103.9,125.94,153.82,130.43C362.57,445.28,387.65,471.51,384.16,506.45z"/>
<path class="st6" d="M121.94,388.16c0,0,29.69,23.84,40.03,50.37c10.34,26.54,10.34,49.93,31.93,54.42c21.59,4.5,62.07,7.2,103-4.95
	c40.93-12.14,41.83-26.54-1.35-34.18c-43.18-7.64-90.4-48.57-103.9-77.81c-13.49-29.24-13.04-40.93-21.59-48.57
	c-8.54-7.64-21.14-10.34-33.73,4.5C123.74,346.78,116.54,371.52,121.94,388.16z"/>
<path class="st9" d="M212.16,308.59c0.52-0.71,1.16-1.34,1.65-2.06c2.2-3.2-0.21-6.83-2.96-8.71c-1.87-1.27-2.15-2.29-1.69-4.62
	c0.36-1.85,1.41-3.07,1.05-4.99c-0.3-1.61-1-3.9-2.25-4.95c-1.28-1.07-3.18-0.98-4.66-1.61c-3.67-1.57-0.26-4.49-1.83-7.24
	c-2.35-4.11-9.07-3.13-13.06-3.73c0.03,0.01,0.05,0,0.05-0.03c-3.43-1.37-4.03-4.97-8.43-4.24c-2.08,0.34-3.52,1.65-5.25,2.67
	c-3.01,1.77-5.54-0.66-8.45,0.43c-3.29,1.24-5.91,4.2-6.84,7.59c-1.29,4.72-4.02,3.34-7.74,5.03c-1.97,0.9-4.43,1.53-4.02,4.29
	c0.22,1.48,1.52,2.74,1.63,4.2c0.13,1.87-1.63,2.93-2.67,4.31c-1.12,1.5-1.85,3.68-1.09,5.47c0.81,1.94,3.09,2.89,3.2,5.25
	c0.15,3.29-4.48,5.99-2.59,9.58c1.25,2.38,3.95,2.38,5.75,3.89c1.21,1.02,1.04,2.55,0.9,3.91c-0.38,3.74,1.36,7.07,5.75,6.2
	c3.2-0.63,5.53-0.99,7.8,1.76c1.98,2.4,3.93,3.59,7.28,3.31c2.13-0.18,4.1-1.06,6.14-1.63c1.91-0.54,2.5-0.22,4.21,0.31
	c3.61,1.12,5.71-2.33,9.07-2.29c1.29,0.02,2.14,0.99,3.45,1.21c1.53,0.25,3.2-0.25,4.51-1.02c1.72-1.01,2.53-2.21,3.12-4.09
	c0.5-1.62,0.87-2.2,2.43-2.86c3.97-1.68,6.13-3.51,5.87-8.15c-0.1-1.83-1.41-3.3-1.21-5.11
	C211.35,309.88,211.71,309.21,212.16,308.59z"/>
<path class="st2" d="M356.87,579.16c0,6.37-59.2,11.55-132.23,11.55c-73.03,0-132.23-5.17-132.23-11.55
	c0-6.38,59.2-11.55,132.23-11.55C297.67,567.62,356.87,572.79,356.87,579.16z"/>
<path class="st3" d="M212.79,366.87c0,0,25.04,26.39,35.23,28.94l-16.34,10.34l-21.74-12.14
	C209.95,394.01,201.85,372.42,212.79,366.87z"/>
<path class="st6" d="M212.79,366.87l-0.21,0.2c0,0,6.26,6.6,13.81,13.52c3.77,3.46,7.86,7.01,11.66,9.85
	c1.9,1.42,3.72,2.66,5.39,3.64c1.68,0.97,3.2,1.68,4.52,2.01l0.07-0.28l-0.15-0.24l-16.2,10.25l-21.59-12.06l-0.14,0.25l0.27-0.1
	c0,0-0.01-0.03-0.03-0.08c-0.31-0.85-2.84-8.03-2.83-14.88c0-2.47,0.33-4.89,1.19-6.96c0.86-2.07,2.25-3.77,4.38-4.86L212.79,366.87
	l-0.21,0.2L212.79,366.87l-0.13-0.26c-2.27,1.15-3.76,2.99-4.66,5.15c-0.9,2.16-1.23,4.66-1.23,7.18c0,7.45,2.9,15.15,2.9,15.17
	l0.04,0.1l21.98,12.28l17.06-10.8l-0.66-0.16c-1.23-0.31-2.72-0.99-4.37-1.94c-5.77-3.35-13.46-10.09-19.7-15.98
	c-3.12-2.95-5.88-5.68-7.85-7.68c-0.99-1-1.78-1.81-2.33-2.38c-0.27-0.28-0.48-0.5-0.63-0.65c-0.14-0.15-0.22-0.23-0.22-0.23
	l-0.15-0.16l-0.19,0.1L212.79,366.87z"/>
<path class="st9" d="M226.06,423.47c0,0,39.95-6.22,64.54,4.87c24.59,11.09,17.99,29.69,10.19,45.58
	c-7.8,15.89-14.99,21.89-14.99,21.89l-14.99-6.3c0,0,5.4-26.99,14.39-40.48c0,0-35.08,18.59-53.97,17.69
	c-18.89-0.9-18.59-36.28-18.59-36.28L226.06,423.47z"/>
<path class="st5" d="M168.68,338.16c0,0-10.31,5.47-18.11,8.47c-7.8,3-10.19,14.54-5.7,22.94c4.5,8.4,15.74,29.84,20.54,42.58
	c4.8,12.74,7.57,23.24,7.57,23.24s26.16,5.02,40.7-0.23c14.54-5.25,12.37-11.69,12.37-11.69s-9.37-32.91-10.72-41.75
	c0,0,4.05-9.15,0.75-17.24c-3.3-8.1-11.84-11.39-16.04-16.34C195.85,343.18,179.59,336.74,168.68,338.16z"/>
<path class="st3" d="M200.5,304.09c-0.34,4.5-0.74,9.01-0.13,15.29c0.49,5.13-1.98,9.19-9.1,14.95c0,0-2.61,0.23-5.56-0.63
	c-0.05,0-0.11-0.02-0.16-0.03l0.67,4.93l0.14,1.04l0.09,0.76c0,0,0.11,3.17-3.6,4.07c-3.72,0.9-11.37-2.7-14.18-6.3
	c0,0,0.45-13.49-0.68-18.78c0,0-3.47-5.74-5.4-13.6c-1.91-7.88,3.99-15.54,9.48-18.37c5.51-2.81,22.13-2.9,27.19,8.58
	C199.26,295.99,200.85,299.59,200.5,304.09z"/>
<path class="st6" d="M200.51,304.09l-0.29-0.02c-0.21,2.79-0.45,5.6-0.45,8.83c0,1.98,0.09,4.12,0.32,6.51
	c0.04,0.41,0.06,0.8,0.06,1.19c0,2.23-0.63,4.27-2.07,6.44c-1.45,2.16-3.72,4.44-6.98,7.07l0.18,0.23l-0.03-0.29h-0.01
	c-0.06,0.01-0.36,0.03-0.83,0.03c-0.99,0-2.73-0.1-4.61-0.65l-0.04-0.01h-0.04v0.03l0-0.03h0v0.03l0-0.03l-0.02,0l-0.05-0.02
	l-0.44-0.15l0.73,5.39l0.14,1.04l0.29-0.04l-0.29,0.03l0.09,0.76l0.29-0.03l-0.29,0.01v0v0.02c0,0.13-0.02,0.88-0.45,1.68
	c-0.21,0.4-0.53,0.82-1,1.18c-0.47,0.37-1.09,0.69-1.93,0.89c-0.36,0.09-0.78,0.13-1.23,0.13c-1.92,0-4.49-0.79-6.86-1.98
	c-2.38-1.19-4.58-2.79-5.79-4.34l-0.23,0.18l0.29,0.01c0,0,0.09-2.65,0.09-6.06c0-2.15-0.03-4.6-0.15-6.88
	c-0.12-2.29-0.31-4.41-0.63-5.91l-0.01-0.05l-0.03-0.04c0,0-0.01-0.02-0.04-0.06c-0.38-0.65-3.53-6.13-5.33-13.46
	c-0.25-1.01-0.36-2.02-0.36-3.01c0-3.29,1.24-6.44,3.08-9.08c1.84-2.64,4.27-4.75,6.61-5.95c0.89-0.45,2.09-0.84,3.51-1.11
	c1.41-0.27,3.04-0.43,4.76-0.43c3.43,0,7.24,0.63,10.6,2.18c3.36,1.56,6.26,4.05,7.91,7.8l0,0.01c0.07,0.15,1.26,2.99,1.26,6.69
	c0,0.41-0.01,0.83-0.05,1.26L200.51,304.09l0.29,0.02c0.03-0.45,0.05-0.88,0.05-1.31c0-3.94-1.31-6.9-1.31-6.93
	c-1.71-3.89-4.74-6.48-8.2-8.09c-3.46-1.61-7.35-2.24-10.85-2.24c-1.76,0-3.41,0.16-4.87,0.44c-1.46,0.28-2.71,0.68-3.66,1.17
	c-2.43,1.25-4.92,3.42-6.82,6.13c-1.89,2.71-3.19,5.98-3.19,9.41c0,1.04,0.12,2.09,0.37,3.15c1.94,7.91,5.42,13.67,5.43,13.68
	l0.25-0.15l-0.28,0.06c0.31,1.44,0.5,3.55,0.62,5.82c0.11,2.27,0.15,4.71,0.15,6.85c0,1.7-0.02,3.21-0.04,4.29
	c-0.01,0.54-0.02,0.98-0.03,1.28c-0.01,0.3-0.01,0.46-0.01,0.46l0,0.1l0.06,0.08c1.3,1.66,3.55,3.28,5.98,4.51
	c2.44,1.22,5.05,2.04,7.12,2.04c0.49,0,0.95-0.05,1.37-0.15c0.91-0.22,1.61-0.58,2.15-1c0.8-0.63,1.22-1.4,1.44-2.04
	c0.21-0.64,0.23-1.14,0.23-1.28v-0.03v-0.01l-0.09-0.77l-0.14-1.04l-0.67-4.93l-0.29,0.04l-0.09,0.27c0.05,0.02,0.13,0.05,0.25,0.05
	v-0.29l-0.08,0.28c1.95,0.57,3.75,0.67,4.77,0.67c0.56,0,0.89-0.03,0.89-0.03l0.09-0.01l0.07-0.05c3.29-2.66,5.6-4.96,7.1-7.2
	c1.5-2.24,2.18-4.41,2.17-6.76c0-0.41-0.02-0.82-0.06-1.24c-0.23-2.37-0.32-4.49-0.32-6.45c0-3.21,0.23-6,0.45-8.79L200.51,304.09z"
	/>
<path class="st4" d="M169.3,312.46c0,0,0.03,0.03,0.09,0.1c0.21,0.23,0.72,0.82,1.19,1.5c0.47,0.67,0.87,1.44,0.87,1.98
	c0,0.08-0.01,0.16-0.03,0.23c-0.13,0.48-0.4,0.76-0.65,1.03c-0.25,0.27-0.48,0.55-0.48,1.02c0,0.22,0.05,0.49,0.18,0.81
	c0.62,1.63,1.02,2.31,1.02,2.31c0.02,0.03,0.06,0.05,0.1,0.03c0.03-0.02,0.05-0.06,0.03-0.1c0,0-0.02-0.04-0.07-0.13
	c-0.14-0.26-0.47-0.95-0.94-2.17c-0.12-0.31-0.16-0.56-0.16-0.76c0-0.41,0.19-0.65,0.44-0.92c0.25-0.27,0.54-0.57,0.68-1.09
	c0.02-0.09,0.03-0.18,0.03-0.27c0-0.69-0.55-1.6-1.1-2.35c-0.54-0.75-1.09-1.33-1.09-1.33c-0.03-0.03-0.07-0.03-0.1,0
	C169.27,312.38,169.27,312.43,169.3,312.46z"/>
<path class="st4" d="M198.81,305.78c0,0-2.14-0.67-5,1.35c0,0,0.51-2.31,2.19-2.59C197.69,304.26,198.81,305.78,198.81,305.78z"/>
<path class="st4" d="M187.29,307.82c0,0-1.53-1.86-3.77-1.53c-2.24,0.33-3.93,1.2-3.93,1.2s0.98-2.19,3.17-2.68
	C184.94,304.33,186.69,305.58,187.29,307.82z"/>
<path class="st4" d="M194.57,311.45c-0.08,1.13,0.22,2.07,0.67,2.1c0.45,0.03,0.88-0.86,0.96-1.99c0.08-1.13-0.22-2.07-0.67-2.1
	C195.08,309.43,194.65,310.32,194.57,311.45z"/>
<path class="st4" d="M184.73,312.8c-0.08,1.13,0.22,2.07,0.67,2.1c0.45,0.03,0.88-0.86,0.96-1.99c0.08-1.13-0.22-2.07-0.67-2.1
	C185.24,310.78,184.81,311.67,184.73,312.8z"/>
<path class="st4" d="M191.85,313.01c0,0,0.16,0.28,0.41,0.73c0.37,0.67,0.92,1.71,1.38,2.71c0.46,1,0.82,1.97,0.82,2.48
	c0,0.15-0.03,0.25-0.08,0.3c-0.16,0.16-0.49,0.35-0.88,0.52c-0.58,0.26-1.31,0.5-1.9,0.67c-0.29,0.09-0.55,0.16-0.73,0.21
	c-0.18,0.05-0.29,0.08-0.29,0.08c-0.04,0.01-0.06,0.05-0.05,0.09c0.01,0.04,0.05,0.06,0.09,0.05c0,0,0.78-0.2,1.65-0.48
	c0.43-0.14,0.89-0.31,1.29-0.48c0.4-0.18,0.73-0.36,0.92-0.55c0.09-0.09,0.12-0.23,0.12-0.4c0-0.38-0.17-0.93-0.41-1.56
	c-0.74-1.88-2.21-4.43-2.21-4.43c-0.02-0.03-0.06-0.05-0.1-0.03C191.84,312.93,191.83,312.97,191.85,313.01z"/>
<path class="st4" d="M191.01,323.54c0,0-0.08,0.01-0.23,0.02c-0.15,0.01-0.36,0.02-0.63,0.02c-1.01,0-2.73-0.18-4.19-1.2
	c-0.03-0.02-0.08-0.01-0.1,0.02s-0.01,0.08,0.02,0.1c1.5,1.04,3.24,1.22,4.27,1.22c0.54,0,0.88-0.05,0.88-0.05
	c0.04-0.01,0.07-0.04,0.06-0.08C191.08,323.57,191.04,323.54,191.01,323.54z"/>
<path class="st9" d="M176.81,299.55c0,0,1.24,2.36,0.56,7.64c-0.67,5.28-1.01,3.37-1.46,5.74c-0.45,2.36,0.79,4.16-0.79,6.07
	c-1.57,1.91,0.79-5.06-4.16-9.22c-4.95-4.16-3.71,8.1-2.47,10.46c1.24,2.36,3.26,3.26,3.26,3.26l-3.15,3.71
	c0,0-15.18-7.2-14.39-22.38c0.79-15.18,9.67-19.34,9.67-19.34s7.42-10.46,26.2-5.62c18.78,4.84,16.48,20.22,16.31,22.49
	c-0.45,5.96-6.3,6.07-6.3,6.07s0.56-6.3-3.49-10.01c0,0-1.13,2.59-5.06,3.6c-3.94,1.01-2.02-2.59-1.24-4.16c0,0-2.25,3.04-5.85,3.04
	C180.86,300.9,176.81,299.55,176.81,299.55z"/>
<path class="st4" d="M186.36,339.64c-1.71-0.45-4.35-1.46-7.64-3.65c-6.06-4.05-5.06-11.69-5.06-11.69
	c2.59,6.19,10.8,8.89,10.8,8.89l1.26,0.52c-0.05,0-0.11-0.02-0.16-0.03l0.67,4.93L186.36,339.64z"/>
<path class="st3" d="M149.23,349.63c7.92-0.82,13.94,7.8,21.59,23.39s15.74,39.43,15.74,39.43s36.13-4.05,47.83-13.34
	c0,0,2.55-9.44,4.35-11.69c1.8-2.25,5.25-3.9,7.5-5.1c2.25-1.2,3.75-2.4,3.75-2.4l-8.85,23.54c0,0-6,5.55-9.29,8.7
	c-3.3,3.15-38.68,21.74-52.77,18.14c-14.09-3.6-31.64-40.63-33.58-49.62C143.53,371.67,139.03,350.68,149.23,349.63z"/>
<path class="st6" d="M149.22,349.63l0.03,0.29c0.34-0.03,0.67-0.05,0.99-0.05c1.8,0,3.5,0.52,5.17,1.52c2.5,1.51,4.92,4.15,7.4,7.82
	c2.47,3.66,5.01,8.35,7.75,13.94c3.82,7.78,7.75,17.63,10.73,25.54c1.49,3.95,2.74,7.42,3.62,9.89c0.44,1.24,0.78,2.23,1.02,2.91
	c0.24,0.68,0.36,1.05,0.36,1.05l0.08,0.22l0.23-0.03c0.01,0,9.05-1.01,19.55-3.19c5.25-1.09,10.88-2.47,15.93-4.16
	c5.05-1.69,9.52-3.7,12.49-6.05l0.08-0.06l0.03-0.09c0,0,0.04-0.15,0.11-0.41c0.25-0.92,0.92-3.24,1.72-5.58
	c0.4-1.17,0.83-2.34,1.25-3.34c0.43-1,0.85-1.82,1.21-2.27c0.87-1.08,2.15-2.04,3.5-2.88c1.35-0.83,2.77-1.55,3.9-2.15
	c2.27-1.21,3.78-2.42,3.79-2.43l-0.18-0.23l-0.27-0.1l-8.85,23.54l0.27,0.1l-0.2-0.21c0,0-6,5.55-9.3,8.7
	c-0.17,0.16-0.45,0.39-0.83,0.65c-1.43,1.01-4.2,2.64-7.78,4.51c-5.37,2.8-12.55,6.15-19.78,8.78c-7.23,2.64-14.5,4.57-20.02,4.57
	c-1.51,0-2.88-0.14-4.09-0.45c-3.42-0.87-7.14-3.82-10.77-7.92c-5.46-6.15-10.75-14.85-14.86-22.85c-2.05-4-3.81-7.83-5.14-11.07
	c-1.33-3.24-2.24-5.91-2.6-7.56c-1-4.63-2.68-12.43-2.68-19.02c0-3.1,0.37-5.93,1.34-8c0.48-1.04,1.11-1.89,1.9-2.51
	c0.79-0.62,1.75-1.02,2.94-1.14L149.22,349.63l-0.03-0.29c-1.28,0.13-2.36,0.57-3.24,1.26c-1.32,1.04-2.18,2.61-2.71,4.51
	c-0.53,1.89-0.74,4.11-0.74,6.47c0,6.68,1.69,14.51,2.69,19.14c0.5,2.29,1.96,6.29,4.11,11.1c3.21,7.2,7.95,16.19,13.22,23.72
	c2.63,3.77,5.4,7.17,8.18,9.81c2.78,2.64,5.58,4.52,8.29,5.21c1.26,0.32,2.69,0.47,4.23,0.47c4.02,0,8.87-0.99,13.96-2.51
	c7.62-2.29,15.76-5.78,22.27-8.97c3.26-1.59,6.11-3.12,8.29-4.38c1.09-0.63,2.01-1.19,2.74-1.67c0.73-0.48,1.25-0.86,1.56-1.15
	c1.65-1.57,3.97-3.75,5.88-5.53c0.95-0.89,1.81-1.68,2.42-2.25c0.31-0.28,0.55-0.51,0.72-0.67c0.17-0.16,0.26-0.24,0.26-0.24
	l0.05-0.05l9.24-24.59l-0.82,0.66l-0.01,0.01c-0.16,0.13-1.6,1.24-3.69,2.36c-1.12,0.6-2.55,1.31-3.93,2.16
	c-1.38,0.85-2.72,1.84-3.65,3.01c-0.25,0.31-0.49,0.71-0.73,1.2c-0.86,1.69-1.77,4.33-2.48,6.56c-0.7,2.23-1.19,4.04-1.19,4.04
	l0.28,0.08l-0.18-0.23c-2.88,2.29-7.3,4.28-12.32,5.96c-7.52,2.52-16.37,4.35-23.33,5.56c-3.48,0.6-6.49,1.04-8.63,1.33
	c-1.07,0.14-1.92,0.25-2.51,0.33c-0.29,0.03-0.52,0.06-0.67,0.08c-0.15,0.02-0.23,0.03-0.23,0.03l0.03,0.29l0.27-0.09
	c0-0.01-8.1-23.84-15.76-39.47c-3.66-7.47-6.95-13.34-10.28-17.37c-1.66-2.01-3.34-3.57-5.08-4.63c-1.74-1.06-3.55-1.61-5.47-1.61
	c-0.35,0-0.7,0.02-1.05,0.05L149.22,349.63z"/>
<path class="st6" d="M172.99,435.39c0,0-8.62,30.13,12.97,45.43c21.59,15.29,77.36-18.89,97.15-42.28c0,0,30.28,41.68,56.07,54.27
	l12.29-11.39c0,0-34.78-50.97-53.07-62.67c-18.29-11.7-76.46,11.09-76.46,11.09S188.21,437.93,172.99,435.39z"/>
<path class="st3" d="M392.55,486.06c-1.2-0.3-2.1,0.9-3.45,1.2c-1.35,0.3-18.14,6-25.19,7.5l-12.44-13.34l-12.29,11.39l12.67,10.15
	c1.31,2.41,4.09,7.04,7.72,10.24c5.1,4.5,9.15,2.55,11.39,0.9c2.25-1.65,6.3-6.15,10.34-9.3c4.05-3.15,9.75-9,11.24-12.89
	C394.05,488.01,393.75,486.36,392.55,486.06z"/>
<path class="st6" d="M392.55,486.06l0.07-0.28c-0.15-0.04-0.31-0.06-0.45-0.05c-0.3,0-0.58,0.07-0.84,0.18
	c-0.4,0.16-0.76,0.39-1.13,0.59c-0.37,0.21-0.74,0.39-1.15,0.48c-0.1,0.02-0.25,0.06-0.45,0.12c-1.5,0.44-6.04,1.94-11.02,3.49
	c-4.99,1.56-10.43,3.18-13.71,3.88l0.06,0.28l0.21-0.2L351.49,481l-12.75,11.82l12.93,10.36l0.18-0.23l-0.25,0.14
	c1.32,2.43,4.11,7.07,7.78,10.32c2.38,2.1,4.57,2.84,6.48,2.84c2.24,0,4.04-1.02,5.28-1.93c1.15-0.85,2.73-2.39,4.53-4.11
	c1.8-1.72,3.82-3.63,5.82-5.19c2.04-1.59,4.49-3.84,6.61-6.2s3.94-4.8,4.72-6.82c0.71-1.86,1.03-3.22,1.03-4.22
	c0-0.56-0.1-1-0.31-1.35c-0.21-0.35-0.54-0.57-0.92-0.67L392.55,486.06l-0.07,0.28c0.25,0.07,0.43,0.19,0.57,0.41
	c0.14,0.22,0.23,0.56,0.23,1.04c0,0.87-0.29,2.19-1,4.01c-0.72,1.88-2.51,4.31-4.61,6.64c-2.11,2.33-4.53,4.57-6.54,6.13
	c-2.04,1.59-4.07,3.5-5.87,5.23c-1.8,1.72-3.37,3.26-4.47,4.06c-1.19,0.87-2.88,1.82-4.94,1.81c-1.75,0-3.79-0.67-6.09-2.7
	c-3.58-3.15-6.35-7.76-7.65-10.16l-0.03-0.05l-12.46-9.98l11.84-10.97l12.36,13.25l0.16-0.03c3.55-0.76,9.51-2.56,14.76-4.2
	c2.62-0.82,5.07-1.61,6.94-2.21c0.94-0.3,1.73-0.55,2.33-0.74c0.3-0.09,0.55-0.17,0.75-0.23c0.2-0.06,0.34-0.1,0.41-0.11
	c0.66-0.15,1.2-0.48,1.68-0.76c0.24-0.14,0.47-0.26,0.69-0.35c0.22-0.09,0.43-0.14,0.63-0.14c0.1,0,0.21,0.01,0.32,0.04
	L392.55,486.06z"/>
<path class="st3" d="M272.49,488.83c0,0-2.56,9.64-4.09,12.19c-1.53,2.55-7.49,9.09-6.47,12.91c1.02,3.82,5.3,5.34,12.11,6.98
	s7.81,5.56,12.07,7.2c4.26,1.64,9.15,2.34,10.34,1.42c1.19-0.91,3-0.15,5.17-2.55c2.28-2.51-2.55-4.5-5.1-6.67
	c-1.65-1.41-5.99-5.65-10.93-10.02c-4.94-4.37,0.21-15.99,0.21-15.99L272.49,488.83z"/>
<path class="st6" d="M272.49,488.83l-0.28-0.08c0,0-0.04,0.15-0.11,0.42c-0.25,0.94-0.91,3.32-1.67,5.74
	c-0.38,1.21-0.79,2.43-1.18,3.49c-0.39,1.05-0.78,1.94-1.09,2.47c-0.34,0.57-0.93,1.37-1.61,2.29c-1.03,1.39-2.27,3.09-3.27,4.81
	c-0.99,1.72-1.75,3.47-1.75,5.02c0,0.35,0.04,0.69,0.13,1.02c0.27,1,0.75,1.86,1.43,2.59c1.02,1.11,2.47,1.94,4.29,2.66
	c1.83,0.72,4.03,1.32,6.59,1.93c3.36,0.81,5.25,2.16,6.87,3.54c0.81,0.69,1.55,1.39,2.36,2.02c0.81,0.63,1.7,1.2,2.8,1.63
	c3,1.15,6.3,1.84,8.48,1.85c0.47,0,0.89-0.03,1.25-0.1c0.36-0.07,0.66-0.18,0.9-0.36c0.25-0.19,0.55-0.3,0.9-0.39
	c0.53-0.14,1.18-0.21,1.92-0.49c0.74-0.28,1.55-0.77,2.39-1.7c0.45-0.49,0.67-1.01,0.67-1.52c0-0.57-0.27-1.1-0.66-1.58
	c-0.59-0.72-1.49-1.38-2.44-2.04c-0.94-0.65-1.93-1.3-2.69-1.95c-0.81-0.69-2.31-2.11-4.22-3.89c-1.91-1.78-4.23-3.94-6.7-6.13
	c-0.76-0.67-1.26-1.52-1.59-2.49c-0.32-0.97-0.46-2.06-0.46-3.19c0-2.35,0.58-4.85,1.16-6.76c0.29-0.95,0.58-1.76,0.8-2.33
	c0.11-0.28,0.2-0.51,0.26-0.66c0.03-0.08,0.06-0.13,0.07-0.17c0.02-0.04,0.03-0.06,0.03-0.06l0.12-0.27l-13.9-5.71l-0.08,0.32
	L272.49,488.83l-0.11,0.27l13.32,5.47l0.11-0.27l-0.26-0.12c0,0.01-0.59,1.34-1.19,3.28c-0.59,1.94-1.19,4.49-1.19,6.93
	c0,1.17,0.14,2.32,0.49,3.37c0.35,1.05,0.91,2,1.76,2.74c2.47,2.18,4.78,4.33,6.69,6.11c1.91,1.78,3.4,3.19,4.24,3.91
	c1.07,0.91,2.5,1.77,3.64,2.63c0.57,0.43,1.07,0.86,1.42,1.28c0.35,0.43,0.53,0.82,0.53,1.21c0,0.34-0.14,0.71-0.52,1.13
	c-1.05,1.16-1.97,1.53-2.81,1.75c-0.42,0.11-0.82,0.17-1.21,0.27c-0.39,0.1-0.77,0.23-1.11,0.49c-0.12,0.1-0.35,0.19-0.66,0.25
	c-0.31,0.06-0.69,0.09-1.14,0.09c-2.06,0-5.33-0.68-8.27-1.81c-1.03-0.4-1.86-0.93-2.65-1.54c-1.18-0.92-2.24-2.02-3.66-3.05
	c-1.42-1.03-3.2-1.99-5.79-2.61c-3.4-0.82-6.15-1.61-8.16-2.65c-1-0.52-1.82-1.1-2.44-1.78c-0.62-0.67-1.05-1.44-1.3-2.35
	c-0.07-0.27-0.11-0.56-0.11-0.87c0-0.91,0.31-1.96,0.8-3.06c0.75-1.65,1.91-3.4,3.02-4.95c1.11-1.55,2.17-2.91,2.72-3.82
	c0.41-0.67,0.85-1.76,1.31-3.03c1.37-3.81,2.81-9.23,2.81-9.23L272.49,488.83l-0.11,0.27L272.49,488.83z"/>
<path class="st8" d="M294.73,352.32l-14.16,40.93l-2.84,8.13c-0.2,0.54-0.65,0.95-1.21,1.1l-36.14,9.45
	c-0.74,0.2-1.42-0.11-1.8-0.63c-0.34-0.43-0.47-1.02-0.27-1.62l1.92-5.47l17.61-51.65c0.23-0.68,0.84-1.15,1.57-1.17l30.75-1.24
	l2.86-0.11C294.24,349.98,295.12,351.17,294.73,352.32z"/>
<path class="st7" d="M294.73,352.32l-14.16,40.93l-2.84,8.13c-0.2,0.54-0.65,0.95-1.21,1.1l-36.14,9.45
	c-0.74,0.2-1.42-0.11-1.8-0.63c6.57-5.42,24.52-20.87,36.59-37.39c8.6-11.77,12.9-19.41,14.99-23.76l2.86-0.11
	C294.24,349.98,295.12,351.17,294.73,352.32z"/>
<path class="st3" d="M287.4,376.04c-0.02-0.03-0.04-0.05-0.06-0.08c0.43-0.43,0.98-1.17,0.76-1.94c-0.34-1.2-2.11-1.95-4.6-1.89
	c-2.49,0.07-3.79,0.91-3.27,1.42c0.52,0.52,1.91,1.16,3.45,0.95l0.35,0.42c-0.48,0.04-0.98,0.12-1.52,0.25
	c-2.42,0.59-3.51,1.69-2.9,2.08c0.62,0.39,2.11,0.73,3.57,0.2l0.34,0.27c-0.37,0.05-0.76,0.11-1.16,0.21
	c-2.42,0.59-3.51,1.69-2.9,2.08c0.62,0.39,2.11,0.73,3.57,0.2l0.81,0.64c-1.38,0.44-2.91,1.09-2.64,1.59
	c0.39,0.73,2.64,0.9,2.64,0.9l-0.95,2.98c0,0,2.98-1.41,3.99-2.92c0.58-0.87,0.41-1.79-0.06-2.38c0.34-0.49,0.84-1.42,0.43-2.2
	c-0.09-0.16-0.22-0.31-0.36-0.44C287.22,377.92,287.85,376.88,287.4,376.04z"/>
<path class="st6" d="M287.4,376.04l0.25-0.14c-0.03-0.05-0.05-0.08-0.06-0.09l-0.01-0.01l0,0l0,0l0,0l0,0l-0.08,0.06l0.08-0.05
	l0-0.01l-0.08,0.06l0.08-0.05l-0.25,0.15l0.21,0.2c0.19-0.19,0.41-0.45,0.58-0.75c0.17-0.3,0.31-0.65,0.31-1.04
	c0-0.14-0.02-0.29-0.06-0.44c-0.1-0.34-0.29-0.65-0.56-0.91c-0.4-0.39-0.96-0.69-1.64-0.89c-0.68-0.2-1.48-0.31-2.38-0.31
	c-0.1,0-0.2,0-0.3,0c-1.09,0.03-1.96,0.2-2.58,0.44c-0.31,0.12-0.56,0.26-0.75,0.42c-0.09,0.08-0.17,0.17-0.23,0.27
	c-0.06,0.1-0.1,0.22-0.1,0.34c0,0.17,0.08,0.34,0.2,0.45c0.27,0.26,0.68,0.52,1.2,0.73c0.52,0.2,1.15,0.35,1.84,0.35
	c0.21,0,0.43-0.01,0.65-0.04l-0.04-0.29l-0.22,0.19l0.35,0.42l0.22-0.19l-0.02-0.29c-0.49,0.04-1.01,0.12-1.57,0.25
	c-1.01,0.25-1.8,0.58-2.36,0.93c-0.28,0.17-0.5,0.35-0.66,0.54c-0.08,0.09-0.14,0.19-0.19,0.29c-0.05,0.1-0.08,0.21-0.08,0.32
	c0,0.1,0.03,0.21,0.08,0.3c0.05,0.09,0.13,0.16,0.22,0.22c0.23,0.14,0.54,0.27,0.9,0.36c0.36,0.09,0.78,0.15,1.24,0.15
	c0.53,0,1.11-0.08,1.69-0.3l-0.1-0.27l-0.18,0.23l0.34,0.27l0.18-0.23l-0.03-0.29c-0.38,0.05-0.77,0.11-1.19,0.21
	c-1.01,0.25-1.8,0.58-2.36,0.93c-0.28,0.17-0.5,0.35-0.66,0.54c-0.08,0.09-0.14,0.19-0.19,0.29c-0.05,0.1-0.08,0.21-0.08,0.32
	c0,0.1,0.03,0.21,0.08,0.3s0.13,0.16,0.22,0.22c0.23,0.14,0.54,0.27,0.9,0.36c0.36,0.09,0.78,0.15,1.24,0.15
	c0.53,0,1.11-0.08,1.69-0.3l-0.1-0.27l-0.18,0.23l0.81,0.64l0.18-0.23l-0.09-0.27c-0.65,0.21-1.32,0.45-1.85,0.72
	c-0.27,0.14-0.5,0.27-0.68,0.43c-0.09,0.08-0.17,0.16-0.23,0.25c-0.06,0.1-0.11,0.21-0.11,0.34c0,0.09,0.02,0.18,0.07,0.26
	c0.08,0.14,0.19,0.25,0.31,0.34c0.21,0.16,0.48,0.27,0.75,0.36c0.83,0.27,1.8,0.34,1.81,0.34l0.02-0.29l-0.27-0.09l-1.16,3.61
	l0.6-0.28c0.01,0,0.76-0.36,1.65-0.91c0.89-0.55,1.91-1.29,2.46-2.12c0.29-0.43,0.42-0.89,0.42-1.32c0-0.54-0.19-1.03-0.49-1.4
	l-0.23,0.18l0.24,0.16c0.13-0.19,0.29-0.44,0.41-0.73c0.12-0.29,0.22-0.63,0.22-0.98c0-0.26-0.05-0.53-0.19-0.78
	c-0.11-0.21-0.26-0.37-0.43-0.52l-0.19,0.21l0.23,0.17c0.13-0.18,0.3-0.44,0.45-0.76c0.14-0.32,0.27-0.69,0.27-1.08
	c0-0.26-0.05-0.53-0.19-0.78L287.4,376.04l-0.25,0.14c0.09,0.16,0.12,0.33,0.12,0.51c0,0.27-0.09,0.57-0.21,0.84
	c-0.12,0.27-0.28,0.5-0.39,0.66l-0.16,0.21l0.19,0.18c0.13,0.12,0.24,0.24,0.3,0.36c0.09,0.16,0.12,0.33,0.12,0.51
	c0,0.25-0.07,0.51-0.18,0.75c-0.1,0.24-0.24,0.47-0.36,0.63l-0.12,0.18l0.13,0.17c0.22,0.28,0.37,0.65,0.37,1.04
	c0,0.32-0.09,0.66-0.32,1c-0.45,0.69-1.43,1.42-2.29,1.94c-0.43,0.27-0.83,0.49-1.12,0.64c-0.14,0.08-0.26,0.14-0.34,0.18
	c-0.04,0.02-0.07,0.03-0.09,0.05l-0.03,0.01l0.12,0.26l0.27,0.09l1.07-3.33l-0.36-0.03l-0.02,0c-0.12-0.01-0.67-0.06-1.22-0.19
	c-0.27-0.06-0.55-0.15-0.77-0.25c-0.22-0.1-0.36-0.22-0.4-0.3l-0.03,0.02h0.04l0-0.02l-0.03,0.02h0.04h-0.03l0.03,0.01v-0.01h-0.03
	l0.03,0.01l0.01-0.01c0.01-0.04,0.1-0.14,0.25-0.24c0.22-0.16,0.56-0.33,0.95-0.49c0.39-0.16,0.83-0.32,1.26-0.45l0.52-0.16
	l-1.37-1.07l-0.15,0.05c-0.51,0.19-1.02,0.26-1.49,0.26c-0.4,0-0.78-0.05-1.09-0.13c-0.32-0.08-0.57-0.19-0.73-0.29
	c-0.03-0.02-0.03-0.03-0.03-0.03v-0.01c0-0.01,0-0.03,0.02-0.08c0.03-0.07,0.12-0.19,0.26-0.31c0.42-0.37,1.3-0.83,2.56-1.13
	c0.39-0.1,0.76-0.16,1.13-0.2l0.69-0.09l-1.02-0.8l-0.15,0.05c-0.51,0.19-1.02,0.26-1.49,0.26c-0.4,0-0.78-0.05-1.09-0.13
	c-0.32-0.08-0.57-0.19-0.73-0.29c-0.03-0.02-0.03-0.03-0.03-0.03v-0.01c0-0.01,0-0.03,0.02-0.08c0.03-0.07,0.12-0.19,0.26-0.31
	c0.42-0.37,1.3-0.83,2.56-1.13c0.52-0.13,1.02-0.2,1.48-0.24l0.55-0.05l-0.81-0.98l-0.16,0.02c-0.19,0.03-0.38,0.04-0.57,0.04
	c-0.6,0-1.17-0.13-1.63-0.31c-0.46-0.18-0.82-0.41-1.01-0.6c-0.03-0.04-0.03-0.04-0.03-0.04c0,0,0-0.01,0.02-0.04
	c0.03-0.05,0.12-0.15,0.27-0.24c0.23-0.14,0.6-0.29,1.07-0.4c0.47-0.11,1.06-0.19,1.74-0.21c0.1,0,0.19,0,0.29,0
	c1.13,0,2.09,0.18,2.78,0.49c0.35,0.15,0.63,0.34,0.83,0.54c0.21,0.2,0.34,0.42,0.41,0.65c0.03,0.1,0.04,0.19,0.04,0.28
	c0,0.25-0.09,0.51-0.23,0.75c-0.14,0.24-0.33,0.46-0.5,0.63l-0.16,0.16l0.12,0.19c0.03,0.04,0.05,0.06,0.06,0.07l0.01,0.01
	l0.09-0.07l-0.1,0.05l0.01,0.01l0.09-0.07l-0.1,0.05L287.4,376.04z"/>
<path class="st7" d="M276.86,379.76c-1.01,3.34-3.74,5.47-6.11,4.76c-2.36-0.71-3.46-4-2.45-7.35c1.01-3.34,3.74-5.47,6.11-4.76
	C276.78,373.12,277.87,376.41,276.86,379.76z"/>
<path class="st6" d="M382.9,514.15c-7.38,31.86-40.46,53.95-99.49,57.97c-119.19,8.1-184.86,0.9-208.24-55.77
	c-5.29-12.81-7.34-29.36-7.05-47.44c9,3.6,25.74,13.44,43.93,39.8c26.99,39.13,81.41,58.92,147.08,50.37
	C323.02,550.76,361.81,541.59,382.9,514.15z"/>
</svg>
