<?xml version="1.0" encoding="utf-8"?>
<!-- Generator: Adobe Illustrator 24.0.2, SVG Export Plug-In . SVG Version: 6.00 Build 0)  -->
<svg version="1.1" id="Capa_1" xmlns="http://www.w3.org/2000/svg" xmlns:xlink="http://www.w3.org/1999/xlink" x="0px" y="0px"
	 viewBox="0 0 19 19" style="enable-background:new 0 0 19 19;" xml:space="preserve">
<style type="text/css">
	.st0{fill:#414141;}
</style>
<path class="st0" d="M8.15,2.15c3.31,0,6,2.69,6,6c0,3.31-2.69,6-6,6c-3.31,0-6-2.69-6-6C2.15,4.84,4.84,2.15,8.15,2.15z
	 M8.15,16.15c1.85,0,3.54-0.63,4.9-1.69l4.4,4.4l1.41-1.41l-4.4-4.4c1.05-1.36,1.69-3.05,1.69-4.9c0-4.41-3.59-8-8-8
	c-4.41,0-8,3.59-8,8S3.74,16.15,8.15,16.15z"/>
<path class="st0" d="M9.56,6.73c0.38,0.38,0.59,0.88,0.59,1.41h2c0-1.06-0.42-2.07-1.17-2.83c-1.51-1.51-4.14-1.51-5.65,0l1.41,1.42
	C7.49,5.98,8.8,5.98,9.56,6.73z"/>
</svg>
