<?xml version="1.0" encoding="utf-8"?>
<!-- Generator: Adobe Illustrator 24.0.2, SVG Export Plug-In . SVG Version: 6.00 Build 0)  -->
<svg version="1.1" id="Capa_1" xmlns="http://www.w3.org/2000/svg" xmlns:xlink="http://www.w3.org/1999/xlink" x="0px" y="0px"
	 viewBox="0 0 302 10" style="enable-background:new 0 0 302 10;" xml:space="preserve">
<style type="text/css">
	.st0{clip-path:url(#SVGID_2_);fill:#337E93;}
</style>
<g>
	<defs>
		<rect id="SVGID_1_" x="1" y="1" width="300" height="8"/>
	</defs>
	<clipPath id="SVGID_2_">
		<use xlink:href="#SVGID_1_"  style="overflow:visible;"/>
	</clipPath>
	
		<rect x="147.43" y="4.21" transform="matrix(0.7071 -0.7071 0.7071 0.7071 41.7772 111.2732)" class="st0" width="15.56" height="2"/>
	
		<rect x="153.43" y="4.21" transform="matrix(0.7071 -0.7071 0.7071 0.7071 43.5345 115.5158)" class="st0" width="15.56" height="2"/>
	
		<rect x="159.43" y="4.21" transform="matrix(0.7071 -0.7071 0.7071 0.7071 45.2919 119.7584)" class="st0" width="15.56" height="2"/>
	
		<rect x="165.43" y="4.21" transform="matrix(0.7071 -0.7071 0.7071 0.7071 47.0492 124.0011)" class="st0" width="15.56" height="2"/>
	
		<rect x="171.43" y="4.21" transform="matrix(0.7071 -0.7071 0.7071 0.7071 48.8066 128.2437)" class="st0" width="15.56" height="2"/>
	
		<rect x="177.43" y="4.21" transform="matrix(0.7071 -0.7071 0.7071 0.7071 50.564 132.4864)" class="st0" width="15.56" height="2"/>
	
		<rect x="183.43" y="4.21" transform="matrix(0.7071 -0.7071 0.7071 0.7071 52.3213 136.729)" class="st0" width="15.56" height="2"/>
	
		<rect x="189.43" y="4.21" transform="matrix(0.7071 -0.7071 0.7071 0.7071 54.0787 140.9716)" class="st0" width="15.56" height="2"/>
	
		<rect x="195.43" y="4.21" transform="matrix(0.7071 -0.7071 0.7071 0.7071 55.836 145.2143)" class="st0" width="15.56" height="2"/>
	
		<rect x="201.43" y="4.21" transform="matrix(0.7071 -0.7071 0.7071 0.7071 57.5934 149.4569)" class="st0" width="15.56" height="2"/>
	
		<rect x="207.43" y="4.21" transform="matrix(0.7071 -0.7071 0.7071 0.7071 59.3508 153.6996)" class="st0" width="15.56" height="2"/>
	
		<rect x="213.43" y="4.21" transform="matrix(0.7071 -0.7071 0.7071 0.7071 61.1081 157.9422)" class="st0" width="15.56" height="2"/>
	
		<rect x="219.43" y="4.21" transform="matrix(0.7071 -0.7071 0.7071 0.7071 62.8655 162.1849)" class="st0" width="15.56" height="2"/>
	
		<rect x="225.43" y="4.21" transform="matrix(0.7071 -0.7071 0.7071 0.7071 64.6228 166.4275)" class="st0" width="15.56" height="2"/>
	
		<rect x="231.43" y="4.21" transform="matrix(0.7071 -0.7071 0.7071 0.7071 66.3802 170.6702)" class="st0" width="15.56" height="2"/>
	
		<rect x="237.43" y="4.21" transform="matrix(0.7071 -0.7071 0.7071 0.7071 68.1376 174.9128)" class="st0" width="15.56" height="2"/>
	
		<rect x="243.43" y="4.21" transform="matrix(0.7071 -0.7071 0.7071 0.7071 69.8949 179.1554)" class="st0" width="15.56" height="2"/>
	
		<rect x="249.43" y="4.21" transform="matrix(0.7071 -0.7071 0.7071 0.7071 71.6523 183.3981)" class="st0" width="15.56" height="2"/>
	
		<rect x="255.43" y="4.21" transform="matrix(0.7071 -0.7071 0.7071 0.7071 73.4096 187.6407)" class="st0" width="15.56" height="2"/>
	
		<rect x="261.43" y="4.21" transform="matrix(0.7071 -0.7071 0.7071 0.7071 75.167 191.8834)" class="st0" width="15.56" height="2"/>
	
		<rect x="267.43" y="4.21" transform="matrix(0.7071 -0.7071 0.7071 0.7071 76.9244 196.126)" class="st0" width="15.56" height="2"/>
	
		<rect x="273.43" y="4.21" transform="matrix(0.7071 -0.7071 0.7071 0.7071 78.6817 200.3686)" class="st0" width="15.56" height="2"/>
	
		<rect x="279.43" y="4.21" transform="matrix(0.7071 -0.7071 0.7071 0.7071 80.4391 204.6113)" class="st0" width="15.56" height="2"/>
	
		<rect x="285.43" y="4.21" transform="matrix(0.7071 -0.7071 0.7071 0.7071 82.1964 208.8539)" class="st0" width="15.56" height="2"/>
	
		<rect x="291.43" y="4.21" transform="matrix(0.7071 -0.7071 0.7071 0.7071 83.9538 213.0966)" class="st0" width="15.56" height="2"/>
	<rect x="-8.57" y="4.21" transform="matrix(0.7071 -0.7071 0.7071 0.7071 -3.9142 0.9645)" class="st0" width="15.56" height="2"/>
	<rect x="-2.57" y="4.21" transform="matrix(0.7071 -0.7071 0.7071 0.7071 -2.1569 5.2071)" class="st0" width="15.56" height="2"/>
	<rect x="3.43" y="4.21" transform="matrix(0.7071 -0.7071 0.7071 0.7071 -0.3995 9.4497)" class="st0" width="15.56" height="2"/>
	<rect x="9.43" y="4.21" transform="matrix(0.7071 -0.7071 0.7071 0.7071 1.3579 13.6924)" class="st0" width="15.56" height="2"/>
	<rect x="15.43" y="4.21" transform="matrix(0.7071 -0.7071 0.7071 0.7071 3.1152 17.935)" class="st0" width="15.56" height="2"/>
	<rect x="21.43" y="4.21" transform="matrix(0.7071 -0.7071 0.7071 0.7071 4.8726 22.1777)" class="st0" width="15.56" height="2"/>
	<rect x="27.43" y="4.21" transform="matrix(0.7071 -0.7071 0.7071 0.7071 6.6299 26.4203)" class="st0" width="15.56" height="2"/>
	<rect x="33.43" y="4.21" transform="matrix(0.7071 -0.7071 0.7071 0.7071 8.3873 30.663)" class="st0" width="15.56" height="2"/>
	
		<rect x="39.43" y="4.21" transform="matrix(0.7071 -0.7071 0.7071 0.7071 10.1447 34.9056)" class="st0" width="15.56" height="2"/>
	<rect x="45.43" y="4.21" transform="matrix(0.7071 -0.7071 0.7071 0.7071 11.902 39.1482)" class="st0" width="15.56" height="2"/>
	
		<rect x="51.43" y="4.21" transform="matrix(0.7071 -0.7071 0.7071 0.7071 13.6594 43.3909)" class="st0" width="15.56" height="2"/>
	
		<rect x="57.43" y="4.21" transform="matrix(0.7071 -0.7071 0.7071 0.7071 15.4167 47.6335)" class="st0" width="15.56" height="2"/>
	
		<rect x="63.43" y="4.21" transform="matrix(0.7071 -0.7071 0.7071 0.7071 17.1741 51.8762)" class="st0" width="15.56" height="2"/>
	
		<rect x="69.43" y="4.21" transform="matrix(0.7071 -0.7071 0.7071 0.7071 18.9315 56.1188)" class="st0" width="15.56" height="2"/>
	
		<rect x="75.43" y="4.21" transform="matrix(0.7071 -0.7071 0.7071 0.7071 20.6888 60.3615)" class="st0" width="15.56" height="2"/>
	
		<rect x="81.43" y="4.21" transform="matrix(0.7071 -0.7071 0.7071 0.7071 22.4462 64.6041)" class="st0" width="15.56" height="2"/>
	
		<rect x="87.43" y="4.21" transform="matrix(0.7071 -0.7071 0.7071 0.7071 24.2035 68.8467)" class="st0" width="15.56" height="2"/>
	
		<rect x="93.43" y="4.21" transform="matrix(0.7071 -0.7071 0.7071 0.7071 25.9609 73.0894)" class="st0" width="15.56" height="2"/>
	<rect x="99.43" y="4.21" transform="matrix(0.7071 -0.7071 0.7071 0.7071 27.7183 77.332)" class="st0" width="15.56" height="2"/>
	
		<rect x="105.43" y="4.21" transform="matrix(0.7071 -0.7071 0.7071 0.7071 29.4756 81.5747)" class="st0" width="15.56" height="2"/>
	
		<rect x="111.43" y="4.21" transform="matrix(0.7071 -0.7071 0.7071 0.7071 31.233 85.8173)" class="st0" width="15.56" height="2"/>
	
		<rect x="117.43" y="4.21" transform="matrix(0.7071 -0.7071 0.7071 0.7071 32.9903 90.0599)" class="st0" width="15.56" height="2"/>
	
		<rect x="123.43" y="4.21" transform="matrix(0.7071 -0.7071 0.7071 0.7071 34.7477 94.3026)" class="st0" width="15.56" height="2"/>
	
		<rect x="129.43" y="4.21" transform="matrix(0.7071 -0.7071 0.7071 0.7071 36.5051 98.5452)" class="st0" width="15.56" height="2"/>
	
		<rect x="135.43" y="4.21" transform="matrix(0.7071 -0.7071 0.7071 0.7071 38.2624 102.7879)" class="st0" width="15.56" height="2"/>
	
		<rect x="141.43" y="4.21" transform="matrix(0.7071 -0.7071 0.7071 0.7071 40.0198 107.0305)" class="st0" width="15.56" height="2"/>
</g>
</svg>
